<svg id="Layer_1" data-name="Layer 1" xmlns="http://www.w3.org/2000/svg" xmlns:xlink="http://www.w3.org/1999/xlink" viewBox="0 0 1080 850"><defs><style>.cls-1{fill:none;}.cls-2{isolation:isolate;}.cls-3{fill:#979797;}.cls-4{fill:#787878;}.cls-5{clip-path:url(#clip-path);}.cls-6{fill:#858585;}.cls-7{fill:#8a8a8a;}.cls-8{fill:#8f8f8f;}.cls-9{fill:#505050;}.cls-10{fill:#646464;}.cls-11{fill:#8e8e8e;}.cls-12{fill:#747474;}.cls-13{clip-path:url(#clip-path-2);}.cls-14{fill:#7c7c7c;}.cls-15{fill:#818181;}.cls-16{clip-path:url(#clip-path-3);}.cls-17{clip-path:url(#clip-path-4);}.cls-18{clip-path:url(#clip-path-5);}.cls-19{clip-path:url(#clip-path-6);}.cls-20{clip-path:url(#clip-path-7);}.cls-21{clip-path:url(#clip-path-8);}.cls-22{fill:#165c7a;}.cls-23{fill:#17607f;}.cls-24{clip-path:url(#clip-path-9);}.cls-25{fill:#196a8c;}.cls-26{clip-path:url(#clip-path-10);}.cls-27{clip-path:url(#clip-path-11);}.cls-28{fill:#155976;}.cls-29{clip-path:url(#clip-path-12);}.cls-30{clip-path:url(#clip-path-13);}.cls-31{clip-path:url(#clip-path-14);}.cls-32{clip-path:url(#clip-path-15);}.cls-33{clip-path:url(#clip-path-16);}.cls-34{fill:#186383;}.cls-35{clip-path:url(#clip-path-17);}.cls-36{clip-path:url(#clip-path-18);}.cls-37{clip-path:url(#clip-path-19);}.cls-38{fill:#196788;}.cls-39{clip-path:url(#clip-path-20);}.cls-40{clip-path:url(#clip-path-21);}.cls-41{clip-path:url(#clip-path-22);}.cls-42{clip-path:url(#clip-path-23);}.cls-43{clip-path:url(#clip-path-24);}.cls-44{clip-path:url(#clip-path-25);}.cls-45{clip-path:url(#clip-path-26);}.cls-46{clip-path:url(#clip-path-27);}.cls-47{clip-path:url(#clip-path-28);}.cls-48{clip-path:url(#clip-path-29);}.cls-49{clip-path:url(#clip-path-30);}.cls-50{clip-path:url(#clip-path-31);}.cls-51{clip-path:url(#clip-path-32);}.cls-52{clip-path:url(#clip-path-33);}.cls-53{clip-path:url(#clip-path-34);}.cls-54{clip-path:url(#clip-path-35);}.cls-55{clip-path:url(#clip-path-36);}.cls-56{clip-path:url(#clip-path-37);}.cls-57{clip-path:url(#clip-path-38);}.cls-58{clip-path:url(#clip-path-39);}.cls-59{fill:#d5d5d5;}.cls-60{clip-path:url(#clip-path-40);}.cls-61{clip-path:url(#clip-path-41);}.cls-62{clip-path:url(#clip-path-42);}.cls-63{clip-path:url(#clip-path-43);}.cls-64{clip-path:url(#clip-path-44);}.cls-65{clip-path:url(#clip-path-45);}.cls-66{clip-path:url(#clip-path-46);}.cls-67{fill:#269ed1;}.cls-68{clip-path:url(#clip-path-47);}.cls-69{clip-path:url(#clip-path-48);}.cls-70{clip-path:url(#clip-path-49);}.cls-71{clip-path:url(#clip-path-50);}.cls-72{clip-path:url(#clip-path-51);}.cls-73{clip-path:url(#clip-path-52);}.cls-74{clip-path:url(#clip-path-53);}.cls-75{clip-path:url(#clip-path-54);}.cls-76{clip-path:url(#clip-path-55);}.cls-77{clip-path:url(#clip-path-56);}.cls-78{fill:#aeaeae;}.cls-79{clip-path:url(#clip-path-57);}.cls-80{fill:#939393;}.cls-81{fill:#989898;}.cls-82{fill:#9c9c9c;}.cls-83{fill:#a1a1a1;}.cls-84{fill:#a6a6a6;}.cls-85{fill:#aaa;}.cls-86{fill:#afafaf;}.cls-87{fill:#b3b3b3;}.cls-88{fill:#b8b8b8;}.cls-89{fill:#bdbdbd;}.cls-90{clip-path:url(#clip-path-58);}.cls-91{clip-path:url(#clip-path-59);}.cls-92{clip-path:url(#clip-path-60);}.cls-93{clip-path:url(#clip-path-61);}.cls-94{clip-path:url(#clip-path-62);}.cls-95{clip-path:url(#clip-path-63);}.cls-96{clip-path:url(#clip-path-64);}.cls-97{clip-path:url(#clip-path-65);}.cls-98{fill:#1f81ab;}.cls-99{clip-path:url(#clip-path-66);}.cls-100{fill:#1a6d91;}.cls-101{fill:#1b7195;}.cls-102{fill:#1c749a;}.cls-103{fill:#1d789e;}.cls-104{fill:#1e7ba3;}.cls-105{fill:#1e7fa7;}.cls-106{fill:#1f82ac;}.cls-107{fill:#2085b0;}.cls-108{fill:#2189b5;}.cls-109{fill:#228cb9;}.cls-110{clip-path:url(#clip-path-67);}.cls-111{clip-path:url(#clip-path-68);}</style><clipPath id="clip-path"><path class="cls-1" d="M1076.73,298.87l-2.21,31.84c-.85,12.33-6.11,24.5-16.1,35l2.2-31.85C1070.61,323.37,1075.88,311.2,1076.73,298.87Z"/></clipPath><clipPath id="clip-path-2"><path class="cls-1" d="M512.54,632.41h0q.63-9,1.25-18l.29-4.13c.08-1.21.19-2.82.28-4s.18-2.68.26-3.83c0-.55.13-1.28.13-1.83h0q-1.1,15.85-2.2,31.7.63-9,1.24-17.93c.09-1.24.2-2.89.29-4.12.14-2,.28-4,.41-6l.13-1.88c0-.55.13-1.27.13-1.82a10.45,10.45,0,0,1,6.56,1.36q-1.1,15.9-2.2,31.79,1.1-15.9,2.2-31.79h0q-1.1,15.91-2.21,31.84h0A10.51,10.51,0,0,0,512.54,632.41Z"/></clipPath><clipPath id="clip-path-3"><path class="cls-1" d="M115.25,551.13l2.21-31.85c-1.55,22.27,11.29,45,36.62,59.67l-2.2,31.84C126.54,596.17,113.7,573.39,115.25,551.13Z"/></clipPath><clipPath id="clip-path-4"><path class="cls-1" d="M523.77,637.87a18,18,0,0,0-4.64-4.09q1.11-15.93,2.21-31.84A18,18,0,0,1,526,606C525.32,615.58,524.44,628.32,523.77,637.87Z"/></clipPath><clipPath id="clip-path-5"><path class="cls-1" d="M512.53,632.41a9.35,9.35,0,0,0-7.29,4.78q1.11-15.91,2.21-31.84a9.34,9.34,0,0,1,7.29-4.78Q513.65,616.5,512.53,632.41Z"/></clipPath><clipPath id="clip-path-6"><path class="cls-1" d="M463.79,609.22c-13.5,9.3-24.15,18.61-31.42,27.17q1.11-15.93,2.21-31.84c7.27-8.56,17.92-17.87,31.42-27.17C465.33,586.93,464.45,599.67,463.79,609.22Z"/></clipPath><clipPath id="clip-path-7"><path class="cls-1" d="M434.58,604.55l-2.21,31.84q-20.69-7.26-43.59-15.12L391,589.42Q413.88,597.29,434.58,604.55Z"/></clipPath><clipPath id="clip-path-8"><path class="cls-1" d="M521.37,611.92l-2.21,31.84q-4.32-.25-8.45-.33l2.21-31.84Q517,611.67,521.37,611.92Z"/></clipPath><clipPath id="clip-path-9"><path class="cls-1" d="M471.43,582.05l-2.21,31.84c-12.88,8.88-22.63,17.52-29.3,25.16l2.21-31.84C448.79,599.57,458.55,590.93,471.43,582.05Z"/></clipPath><clipPath id="clip-path-10"><path class="cls-1" d="M523.77,637.87Q524.88,622,526,606c6.39.48,12.88,1.21,19.31,2.19,19.13,2.93,46.22,9.31,70.19,23.15q2.78,1.61,5.49,3.34a154.7,154.7,0,0,1,15.35,11c7.22,6,10.61,10.72,10.41,14.47q-1.11,15.93-2.21,31.84c0-.22,0-.44,0-.67q1.11-15.9,2.21-31.81-1.11,15.91-2.21,31.81c-.21-3.64-3.61-8.13-10.41-13.8a155.63,155.63,0,0,0-15.34-11q-2.73-1.74-5.5-3.34c-24-13.84-51.06-20.22-70.18-23.15C536.65,639.08,530.17,638.35,523.77,637.87Z"/></clipPath><clipPath id="clip-path-11"><path class="cls-1" d="M610.81,636.24l-2.21,31.84c-24.15-13.94-53.7-21.08-80-23.6l2.21-31.85C557.11,615.16,586.65,622.3,610.81,636.24Z"/></clipPath><clipPath id="clip-path-12"><path class="cls-1" d="M528.58,644.47a6.26,6.26,0,0,1,.13-1.82q.48-7,1-14.1l1.11-15.92.82,1.25q-.6,8.75-1.21,17.49l-.54,7.73-.13,2-.07,1-.13,1.88-.06.91c0,.26-.06.61-.06.87Z"/></clipPath><clipPath id="clip-path-13"><path class="cls-1" d="M529.41,645.72a2.86,2.86,0,0,1,.06-.87q1.06-15.5,2.14-31l.5.75,1.32,2q-1.09,15.92-2.21,31.84l-1.32-2C529.73,646.22,529.57,646,529.41,645.72Z"/></clipPath><clipPath id="clip-path-14"><path class="cls-1" d="M430.48,609.79l-2.21,31.84q-20.2-7.08-42.5-14.74l2.2-31.84Q410.26,602.7,430.48,609.79Z"/></clipPath><clipPath id="clip-path-15"><path class="cls-1" d="M474.48,640c-6.72,1.4-12.13,3.28-16.11,5.56q1.11-15.93,2.21-31.84c4-2.27,9.37-4.15,16.08-5.56q-1.11,15.9-2.21,31.79,1.11-15.88,2.21-31.79h0q-1.09,15.89-2.2,31.76,1.11-15.88,2.2-31.76a155.77,155.77,0,0,1,30.71-2.82q-1.11,15.9-2.21,31.8.63-9,1.25-18L507,611c.08-1.15.18-2.68.26-3.83,0-.55.13-1.28.13-1.83h0l-2.21,31.84A155.42,155.42,0,0,0,474.48,640Z"/></clipPath><clipPath id="clip-path-16"><path class="cls-1" d="M504.33,611.59l-2.21,31.84A140.82,140.82,0,0,0,476.83,646L479,614.14A140.72,140.72,0,0,1,504.33,611.59Z"/></clipPath><clipPath id="clip-path-17"><path class="cls-1" d="M427.42,642.86q1.11-15.93,2.21-31.84c.27-.41.56-.82.85-1.23l-2.21,31.84Z"/></clipPath><clipPath id="clip-path-18"><path class="cls-1" d="M439.92,639.05q1.11-15.93,2.21-31.84,9.48,3.33,18.45,6.53l-2.21,31.84Q449.39,642.37,439.92,639.05Z"/></clipPath><clipPath id="clip-path-19"><path class="cls-1" d="M479,614.14,476.83,646a59.45,59.45,0,0,0-9.62,2.76l2.2-31.84A59.59,59.59,0,0,1,479,614.14Z"/></clipPath><clipPath id="clip-path-20"><path class="cls-1" d="M454.88,618.4l-2.21,31.84q-8.26-2.94-16.93-6L438,612.42Q446.61,615.47,454.88,618.4Z"/></clipPath><clipPath id="clip-path-21"><path class="cls-1" d="M451.1,652.89q1.09-15.92,2.21-31.84a10.9,10.9,0,0,1,1.56-2.64q-1.1,15.89-2.2,31.76,1.09-15.88,2.2-31.76h0l-2.2,31.84A10.81,10.81,0,0,0,451.1,652.89Z"/></clipPath><clipPath id="clip-path-22"><path class="cls-1" d="M451.1,652.89v0l2.21-31.84v0Q452.2,637,451.1,652.89Z"/></clipPath><clipPath id="clip-path-23"><path class="cls-1" d="M467.21,648.73c1.05-15,2-28.15,2.2-31.84q12.78,4.59,24.51,8.87l-2.21,31.84Q480,653.31,467.21,648.73Z"/></clipPath><clipPath id="clip-path-24"><path class="cls-1" d="M502.12,643.43a39.31,39.31,0,0,1-10.41,14.17l2.21-31.84a39.31,39.31,0,0,0,10.41-14.17C503.66,621.14,502.78,633.88,502.12,643.43Z"/></clipPath><clipPath id="clip-path-25"><path class="cls-1" d="M458.37,656.52l2.21-31.84a5.21,5.21,0,0,1,.36-1.57,6.26,6.26,0,0,1,1.41-2l-2.21,31.84a6.53,6.53,0,0,0-1.41,2A5.21,5.21,0,0,0,458.37,656.52Z"/></clipPath><clipPath id="clip-path-26"><path class="cls-1" d="M512.92,611.59l-2.21,31.84-.37.78c-2,4.31-4.77,10.36-11,16.19l2.21-31.84c6.23-5.83,9-11.88,11-16.19C512.66,612.12,512.79,611.86,512.92,611.59Z"/></clipPath><clipPath id="clip-path-27"><path class="cls-1" d="M487.58,630.18,485.37,662q-12.08-4.41-25.23-9.11l2.21-31.84Q475.51,625.78,487.58,630.18Z"/></clipPath><clipPath id="clip-path-28"><path class="cls-1" d="M427.42,642.86c-3.78,5.57-5.91,10.7-6.22,15.14l2.21-31.84c.31-4.44,2.44-9.57,6.22-15.14Q428.52,626.93,427.42,642.86Z"/></clipPath><clipPath id="clip-path-29"><path class="cls-1" d="M429.17,658.58l2.21-31.85c.26-3.76,2.44-8.66,6.57-14.31l-2.21,31.84C431.61,649.91,429.43,654.81,429.17,658.58Z"/></clipPath><clipPath id="clip-path-30"><path class="cls-1" d="M429.35,661.27a9,9,0,0,1-.18-2.69l2.2-31.84a9.36,9.36,0,0,0,.19,2.69Q430.45,645.36,429.35,661.27Z"/></clipPath><clipPath id="clip-path-31"><path class="cls-1" d="M531.22,648.47a2.27,2.27,0,0,1,0-.58q1.1-15.63,2.17-31.26c5.16,7.76,11.66,17,22.28,24.9l-2.21,31.84C542.88,665.44,536.38,656.23,531.22,648.47Z"/></clipPath><clipPath id="clip-path-32"><path class="cls-1" d="M466,668.64c-5.32-4.89-7.89-8.94-7.67-12.12l2.21-31.84q-.33,4.77,7.67,12.12C467.59,646.35,466.7,659.09,466,668.64Z"/></clipPath><clipPath id="clip-path-33"><path class="cls-1" d="M468,668.31l-1.95.33,2.21-31.84,1.95-.33a56.19,56.19,0,0,0,17.38-6.29L485.37,662A56.09,56.09,0,0,1,468,668.31Z"/></clipPath><clipPath id="clip-path-34"><path class="cls-1" d="M450.4,655.87,452.61,624c-.3,4.32,2.27,8.94,6.61,13.62L457,669.49C452.67,664.81,450.1,660.19,450.4,655.87Z"/></clipPath><clipPath id="clip-path-35"><path class="cls-1" d="M429.35,661.27a2.83,2.83,0,0,1,0-.29l2.19-31.55a6.3,6.3,0,0,0,1.38,2.74,8.89,8.89,0,0,0,2.26,1.77c5,2.87,14.57,4.07,24,3.71L457,669.49c-9.45.36-19.05-.84-24-3.71a8.89,8.89,0,0,1-2.26-1.77A6.24,6.24,0,0,1,429.35,661.27Z"/></clipPath><clipPath id="clip-path-36"><path class="cls-1" d="M495.75,633.16,493.54,665a62.5,62.5,0,0,1-21.2,8.85L474.55,642A62.5,62.5,0,0,0,495.75,633.16Z"/></clipPath><clipPath id="clip-path-37"><path class="cls-1" d="M472.34,673.85q1.11-15.92,2.21-31.84l.61.46q-1.11,15.93-2.21,31.84Z"/></clipPath><clipPath id="clip-path-38"><path class="cls-1" d="M554.08,648.58l-2.21,31.84c-1.3-.87-2.57-1.76-3.81-2.69-12.57-9.38-19.9-20.5-25.26-28.62-1-1.57-2.33-3.54-3.64-5.35l2.21-31.84c1.3,1.81,2.61,3.78,3.64,5.35,5.36,8.12,12.69,19.24,25.25,28.62C551.5,646.81,552.78,647.71,554.08,648.58Z"/></clipPath><clipPath id="clip-path-39"><path class="cls-1" d="M499.34,660.4c.86-12.26,1.38-19.69,2.21-31.84q29.93,11,52.53,20l-2.2,31.79v0Q529.3,671.44,499.34,660.4Z"/></clipPath><clipPath id="clip-path-40"><path class="cls-1" d="M421.21,658l2.2-31.84a12.34,12.34,0,0,0,3,9.35,16.55,16.55,0,0,0,4.19,3.33c8.49,4.9,23.1,5.74,34.81,4.6l-2.21,31.84c-11.71,1.14-26.32.3-34.8-4.6a16.43,16.43,0,0,1-4.2-3.33A12.3,12.3,0,0,1,421.21,658Z"/></clipPath><clipPath id="clip-path-41"><path class="cls-1" d="M638.72,659.77l-2.21,31.84c.13-1.78-3.55-8.08-22.72-20.37q-2.55-1.63-5.19-3.16l2.21-31.84q2.64,1.53,5.19,3.16C635.17,651.69,638.85,658,638.72,659.77Z"/></clipPath><clipPath id="clip-path-42"><path class="cls-1" d="M561.45,678.58a81.25,81.25,0,0,1-8-5.21l2.21-31.84a81.25,81.25,0,0,0,7.95,5.21c22.39,12.93,52.48,17.51,67.78,15.63,5-.61,6.87-1.75,7.19-2.26q-1.11,15.87-2.2,31.73,1.1-15.87,2.2-31.73h0a.81.81,0,0,0,.09-.34l-2.21,31.84a.68.68,0,0,1-.09.34c-.32.51-2.23,1.65-7.19,2.26C613.93,696.09,583.84,691.51,561.45,678.58Z"/></clipPath><clipPath id="clip-path-43"><path class="cls-1" d="M646.72,660.3l-2.2,31.84a5.75,5.75,0,0,1-.85,2.61c-1.74,2.85-6.08,4.72-12.9,5.56-9.48,1.17-24.6.19-40.54-3.74l2.2-31.84c16,3.92,31.07,4.91,40.55,3.74,6.81-.84,11.16-2.71,12.9-5.56A5.62,5.62,0,0,0,646.72,660.3Z"/></clipPath><clipPath id="clip-path-44"><path class="cls-1" d="M590.23,696.56c1-15,1.95-28.15,2.2-31.84,8.62,3.93,15.16,7.23,20.06,10q-1.1,15.93-2.2,31.84C605.39,703.79,598.84,700.49,590.23,696.56Z"/></clipPath><clipPath id="clip-path-45"><path class="cls-1" d="M612.78,708.09q1.11-15.92,2.21-31.84c8.21,5,10.76,8.42,10.57,11.18l-2.21,31.84C623.54,716.52,621,713.13,612.78,708.09Z"/></clipPath><clipPath id="clip-path-46"><path class="cls-1" d="M473,674.31q1.11-15.91,2.21-31.84a248.12,248.12,0,0,0,24.3,15.61l.7.41C529,675,560,682.29,576,685.14c24.39,4.34,38.8,3.23,41.47,1.62l-2.2,31.8v0c-2.67,1.61-17.09,2.73-41.48-1.62-15.95-2.85-47-10.1-75.83-26.65l-.7-.4A249.84,249.84,0,0,1,473,674.31Z"/></clipPath><clipPath id="clip-path-47"><path class="cls-1" d="M644.52,692.05c0-.2,0-.48.05-.68l2.16-31.16a.28.28,0,0,1,0,.09l-2.2,31.84Z"/></clipPath><clipPath id="clip-path-48"><path class="cls-1" d="M625.56,687.43l-2.21,31.84a4.53,4.53,0,0,1-.35,1.44l2.21-31.85A4.41,4.41,0,0,0,625.56,687.43Z"/></clipPath><clipPath id="clip-path-49"><path class="cls-1" d="M625.21,688.86,623,720.71c-.87,2-3.28,3.53-7.16,4.41C598.74,729,540,722,493.34,695.24c-10.85-6.27-21.94-13.08-30.17-20l2.21-31.84c8.23,6.88,19.32,13.69,30.17,20,46.67,26.78,105.4,33.79,122.5,29.88C621.93,692.39,624.34,690.91,625.21,688.86Z"/></clipPath><clipPath id="clip-path-50"><path class="cls-1" d="M640.62,777l-2.21,31.84c-28,29.57-82.67,35.12-122,12.4l2.21-31.85C558,812.12,612.58,806.57,640.62,777Z"/></clipPath><clipPath id="clip-path-51"><path class="cls-1" d="M413.52,578.79c-4.7-4.87-13.81-3.78-20.47,2.49s-8.42,15.56-3.76,20.62l.15.16-21.5-22.27-.16-.16c-4.65-5.06-3-14.29,3.76-20.63s15.77-7.35,20.47-2.48Z"/></clipPath><clipPath id="clip-path-52"><path class="cls-1" d="M391.83,556.7,413.34,579c-4.63-4.8-13.6-3.73-20.16,2.44s-8.29,15.34-3.71,20.31l.15.16-21.5-22.27-.15-.16c-4.59-5-2.93-14.07,3.7-20.31S387.2,551.9,391.83,556.7Z"/></clipPath><clipPath id="clip-path-53"><path class="cls-1" d="M413.34,579l.15.16L392,556.86l-.15-.16Z"/></clipPath><clipPath id="clip-path-54"><path class="cls-1" d="M392,556.52l21.51,22.27.15.17-21.5-22.28C392.12,556.63,392.06,556.58,392,556.52Z"/></clipPath><clipPath id="clip-path-55"><path class="cls-1" d="M368.12,579.61c4.63,4.8,13.6,3.73,20.16-2.44s8.29-15.34,3.7-20.31l21.51,22.27c4.58,5,2.93,14.07-3.71,20.31s-15.52,7.24-20.16,2.44Z"/></clipPath><clipPath id="clip-path-56"><path class="cls-1" d="M389.44,602.06l-21.5-22.27c4.7,4.87,13.8,3.78,20.47-2.48s8.41-15.57,3.76-20.63L413.67,579c4.66,5,3,14.28-3.76,20.62S394.15,606.93,389.44,602.06Z"/></clipPath><clipPath id="clip-path-57"><path class="cls-1" d="M396.7,552c-6.53-6.77-19.18-5.26-28.44,3.44s-11.69,21.63-5.22,28.65l.21.22-25.81-26.72-.21-.23c-6.47-7-4.13-19.84,5.22-28.65s21.91-10.21,28.44-3.44Z"/></clipPath><clipPath id="clip-path-58"><path class="cls-1" d="M361.34,534.5l25.81,26.73c-2.8-2.9-8.23-2.26-12.2,1.47s-5,9.28-2.24,12.29l.09.09L347,548.36l-.09-.1c-2.77-3-1.77-8.51,2.24-12.28S358.53,531.6,361.34,534.5Z"/></clipPath><clipPath id="clip-path-59"><path class="cls-1" d="M387.15,561.23l.09.09-25.81-26.73-.09-.09Z"/></clipPath><clipPath id="clip-path-60"><path class="cls-1" d="M370.89,525.27,396.7,552l.21.22L371.1,525.49Z"/></clipPath><clipPath id="clip-path-61"><path class="cls-1" d="M347,548.36c2.8,2.9,8.23,2.25,12.2-1.48s5-9.28,2.24-12.29l25.81,26.73c2.77,3,1.77,8.51-2.24,12.29s-9.4,4.37-12.2,1.47C365.06,567.07,354.74,556.37,347,548.36Z"/></clipPath><clipPath id="clip-path-62"><path class="cls-1" d="M363.25,584.31l-25.81-26.72c6.53,6.76,19.18,5.26,28.44-3.45s11.69-21.63,5.22-28.65l25.81,26.73c6.47,7,4.13,19.85-5.22,28.65S369.78,591.08,363.25,584.31Z"/></clipPath><clipPath id="clip-path-63"><path class="cls-1" d="M377.89,518.16c-9.34-9.66-27.41-7.51-40.63,4.93S320.55,554,329.79,564l.31.32L119.32,346.07l-.3-.32c-9.24-10-5.9-28.35,7.46-40.93s31.3-14.59,40.63-4.92Z"/></clipPath><clipPath id="clip-path-64"><path class="cls-1" d="M167.11,299.9,377.89,518.16l.3.32L167.42,300.22C167.32,300.11,167.22,300,167.11,299.9Z"/></clipPath><clipPath id="clip-path-65"><path class="cls-1" d="M330.1,564.34,119.32,346.07c9.34,9.67,27.41,7.52,40.63-4.92,13.37-12.58,16.71-30.9,7.47-40.93L378.19,518.48c9.24,10,5.9,28.36-7.46,40.93S339.43,574,330.1,564.34Z"/></clipPath><clipPath id="clip-path-66"><path class="cls-1" d="M167.06,299.84c-9.34-9.67-27.41-7.52-40.63,4.92-13.37,12.58-16.71,30.9-7.47,40.93l.3.32L11.78,234.72l-.3-.32c-9.24-10-5.9-28.36,7.47-40.93s31.29-14.6,40.63-4.93Z"/></clipPath><clipPath id="clip-path-67"><path class="cls-1" d="M59.58,188.54l107.48,111.3.3.32L59.88,188.86Z"/></clipPath><clipPath id="clip-path-68"><path class="cls-1" d="M119.26,346,11.78,234.72c9.34,9.66,27.41,7.51,40.63-4.93,13.37-12.57,16.71-30.9,7.47-40.93l107.48,111.3c9.24,10,5.9,28.35-7.47,40.93C146.67,353.53,128.6,355.68,119.26,346Z"/></clipPath></defs><g class="cls-2"><polygon class="cls-3" points="591.03 94.53 588.82 126.37 579.19 136.52 581.4 104.68 591.03 94.53"/><polygon class="cls-3" points="529.25 159.7 527.04 191.54 517.41 201.7 519.62 169.86 529.25 159.7"/><polygon class="cls-3" points="467.46 224.88 465.25 256.72 455.63 266.88 457.83 235.04 467.46 224.88"/><polygon class="cls-4" points="985.4 322.22 983.2 354.06 588.82 126.37 591.03 94.53 985.4 322.22"/><g class="cls-2"><g class="cls-5"><g class="cls-2"><path class="cls-6" d="M1076.73,298.87l-2.21,31.84a51.43,51.43,0,0,1-1.26,8.33l2.21-31.84a51.43,51.43,0,0,0,1.26-8.33"/><path class="cls-7" d="M1075.47,307.2,1073.26,339a55.65,55.65,0,0,1-8.12,18.35l2.21-31.84a55.65,55.65,0,0,0,8.12-18.35"/><path class="cls-8" d="M1067.35,325.55l-2.21,31.84a65.46,65.46,0,0,1-6.72,8.36l2.2-31.85a64,64,0,0,0,6.73-8.35"/></g></g></g><polygon class="cls-9" points="975.78 332.38 973.57 364.22 579.19 136.53 581.4 104.69 975.78 332.38"/><polygon class="cls-10" points="985.4 322.22 983.2 354.06 973.57 364.22 975.78 332.38 985.4 322.22"/><polygon class="cls-11" points="985.4 322.22 975.78 332.38 581.4 104.69 591.03 94.53 985.4 322.22"/><polygon class="cls-3" points="405.68 290.06 403.48 321.9 393.85 332.05 396.06 300.21 405.68 290.06"/><polygon class="cls-4" points="923.62 387.4 921.42 419.24 527.04 191.54 529.25 159.7 923.62 387.4"/><polygon class="cls-10" points="923.63 387.4 921.42 419.24 911.78 429.4 913.99 397.56 923.63 387.4"/><polygon class="cls-9" points="913.99 397.56 911.78 429.4 517.41 201.71 519.61 169.87 913.99 397.56"/><polygon class="cls-3" points="343.9 355.23 341.7 387.07 332.07 397.23 334.28 365.39 343.9 355.23"/><polygon class="cls-4" points="861.84 452.58 859.63 484.42 465.25 256.72 467.46 224.88 861.84 452.58"/><polygon class="cls-10" points="861.84 452.58 859.63 484.42 850 494.58 852.21 462.74 861.84 452.58"/><polygon class="cls-9" points="852.21 462.74 850 494.58 455.63 266.88 457.83 235.04 852.21 462.74"/><polygon class="cls-11" points="861.84 452.58 852.21 462.74 457.83 235.04 467.46 224.88 861.84 452.58"/><polygon class="cls-4" points="800.06 517.75 797.85 549.59 403.48 321.9 405.68 290.06 800.06 517.75"/><polygon class="cls-10" points="800.06 517.75 797.85 549.6 788.23 559.75 790.43 527.91 800.06 517.75"/><polygon class="cls-11" points="800.06 517.75 790.43 527.91 396.06 300.22 405.68 290.06 800.06 517.75"/><polygon class="cls-9" points="790.43 527.91 788.23 559.75 393.85 332.06 396.06 300.22 790.43 527.91"/><polygon class="cls-4" points="738.28 582.93 736.07 614.77 341.7 387.07 343.9 355.23 738.28 582.93"/><polygon class="cls-10" points="738.28 582.93 736.07 614.77 726.45 624.93 728.65 593.09 738.28 582.93"/><polygon class="cls-9" points="728.65 593.09 726.45 624.93 332.07 397.23 334.28 365.39 728.65 593.09"/><polygon class="cls-12" points="471.43 582.05 469.22 613.89 463.79 609.22 466 577.38 471.43 582.05"/><g class="cls-2"><g class="cls-13"><g class="cls-2"><path class="cls-4" d="M526,606l-2.21,31.84a18.29,18.29,0,0,0-4.65-4.1,10.39,10.39,0,0,0-3.09-1.2l2.21-31.84a10.5,10.5,0,0,1,3.09,1.2A18.29,18.29,0,0,1,526,606"/><path class="cls-14" d="M518.24,600.73,516,632.57a10.52,10.52,0,0,0-1.71-.22l2.21-31.84a10.52,10.52,0,0,1,1.71.22"/><path class="cls-15" d="M516.53,600.51l-2.21,31.84a13,13,0,0,0-1.75.06l2.21-31.84a13,13,0,0,1,1.75-.06"/><path class="cls-6" d="M514.78,600.57l-2.21,31.84h0a12.08,12.08,0,0,0-1.71.32L513,600.89a12.08,12.08,0,0,1,1.71-.32h0"/></g></g></g><g class="cls-2"><g class="cls-16"><g class="cls-2"><path class="cls-4" d="M154.08,579l-2.2,31.84c-25.34-14.62-38.18-37.4-36.63-59.66l2.21-31.85c-1.55,22.27,11.29,45,36.62,59.67"/></g></g></g><g class="cls-2"><g class="cls-17"><g class="cls-2"><path class="cls-4" d="M526,606l-2.21,31.84a18.29,18.29,0,0,0-4.65-4.1,10.39,10.39,0,0,0-3.09-1.2l2.21-31.84a10.5,10.5,0,0,1,3.09,1.2A18.29,18.29,0,0,1,526,606"/></g></g></g><g class="cls-2"><g class="cls-18"><g class="cls-2"><path class="cls-6" d="M514.78,600.57l-2.21,31.84h0a12.08,12.08,0,0,0-1.71.32L513,600.89a12.08,12.08,0,0,1,1.71-.32h0"/><path class="cls-7" d="M513,600.89l-2.21,31.84a9.2,9.2,0,0,0-2.07.87L511,601.76a9,9,0,0,1,2.07-.87"/><path class="cls-8" d="M511,601.76l-2.21,31.84a10.24,10.24,0,0,0-3.3,3.25L507.67,605a10.24,10.24,0,0,1,3.3-3.25"/><path class="cls-7" d="M507.67,605l-2.21,31.84a4,4,0,0,1-.22.34l2.21-31.84.22-.34"/></g></g></g><g class="cls-2"><g class="cls-19"><g class="cls-2"><path class="cls-8" d="M466,577.38l-2.21,31.84c-13.5,9.3-24.15,18.61-31.42,27.17l2.21-31.84c7.27-8.56,17.92-17.87,31.42-27.17"/></g></g></g><g class="cls-2"><g class="cls-20"><g class="cls-2"><path class="cls-4" d="M434.58,604.55l-2.21,31.84q-20.69-7.26-43.59-15.12L391,589.42q22.89,7.88,43.59,15.13"/></g></g></g><g class="cls-2"><g class="cls-21"><g class="cls-2"><path class="cls-22" d="M521.37,611.92l-2.21,31.84c-1-.06-2.06-.12-3.08-.16l2.2-31.84c1,0,2.05.1,3.09.16"/><path class="cls-23" d="M518.28,611.76l-2.2,31.84c-1.82-.08-3.61-.13-5.37-.17l2.21-31.84c1.76,0,3.55.09,5.36.17"/></g></g></g><g class="cls-2"><g class="cls-24"><g class="cls-2"><path class="cls-25" d="M471.43,582.05l-2.21,31.84c-12.88,8.88-22.63,17.52-29.3,25.16l2.21-31.84c6.66-7.64,16.42-16.28,29.3-25.16"/></g></g></g><g class="cls-2"><g class="cls-26"><g class="cls-2"><path class="cls-4" d="M646.72,660.3l-2.2,31.84c.26-3.77-3.13-8.48-10.41-14.56a155.63,155.63,0,0,0-15.34-11q-2.73-1.74-5.5-3.34c-18.56-10.71-39-17-56.14-20.59l2.21-31.84c17.15,3.63,37.58,9.87,56.14,20.59q2.78,1.61,5.49,3.34a154.7,154.7,0,0,1,15.35,11c7.27,6.08,10.67,10.79,10.4,14.56"/><path class="cls-14" d="M559.34,610.78l-2.21,31.84c-5-1.06-9.73-1.9-14-2.56-6.44-1-12.92-1.71-19.32-2.19L526,606c6.39.48,12.88,1.21,19.31,2.19,4.32.66,9.05,1.5,14.05,2.56"/></g></g></g><g class="cls-2"><g class="cls-27"><g class="cls-2"><path class="cls-28" d="M610.81,636.24l-2.21,31.84c-16.14-9.31-34.69-15.59-53.07-19.49l2.21-31.84c18.38,3.9,36.93,10.18,53.07,19.49"/><path class="cls-22" d="M557.74,616.75l-2.21,31.84a241.33,241.33,0,0,0-26.95-4.11l2.21-31.85a243.74,243.74,0,0,1,27,4.12"/></g></g></g><g class="cls-2"><g class="cls-29"><g class="cls-2"><path class="cls-4" d="M555.71,641.53l-2.21,31.84c-11.54-8.62-18.22-18.76-23.6-26.9l-1.32-2,2.21-31.84,1.32,2c5.37,8.14,12,18.28,23.6,26.9"/></g></g></g><g class="cls-2"><g class="cls-30"><g class="cls-2"><path class="cls-4" d="M555.71,641.53l-2.21,31.84c-11.54-8.62-18.22-18.76-23.6-26.9l-1.32-2,2.21-31.84,1.32,2c5.37,8.14,12,18.28,23.6,26.9"/></g></g></g><g class="cls-2"><g class="cls-31"><g class="cls-2"><path class="cls-28" d="M430.48,609.79l-2.21,31.84q-20.2-7.08-42.5-14.74l2.2-31.84q22.29,7.65,42.51,14.74"/></g></g></g><g class="cls-2"><g class="cls-32"><g class="cls-2"><path class="cls-15" d="M507.45,605.35l-2.21,31.84a185,185,0,0,0-18.63,1l2.2-31.84a182.34,182.34,0,0,1,18.64-1"/><path class="cls-6" d="M488.81,606.31l-2.2,31.84A120.64,120.64,0,0,0,474.48,640c-1.84.38-3.59.8-5.23,1.26l2.21-31.84q2.46-.69,5.22-1.26a121.09,121.09,0,0,1,12.13-1.87"/><path class="cls-7" d="M471.46,609.44l-2.21,31.84a47.67,47.67,0,0,0-10.88,4.3l2.21-31.84a47.21,47.21,0,0,1,10.88-4.3"/></g></g></g><g class="cls-2"><g class="cls-33"><g class="cls-2"><path class="cls-23" d="M504.33,611.59l-2.21,31.84c-5.14.11-10,.41-14.38.88L490,612.47c4.41-.47,9.23-.77,14.38-.88"/><path class="cls-34" d="M490,612.47l-2.21,31.84A106.58,106.58,0,0,0,476.83,646L479,614.14A106.58,106.58,0,0,1,490,612.47"/></g></g></g><g class="cls-2"><g class="cls-35"><g class="cls-2"><path class="cls-8" d="M430.48,609.79l-2.21,31.84c-.35.5-.69,1-1,1.48l2.21-31.84c.33-.49.67-1,1-1.48"/></g></g></g><g class="cls-2"><g class="cls-36"><g class="cls-2"><path class="cls-4" d="M460.58,613.74l-2.21,31.84q-9-3.21-18.45-6.53l2.21-31.84q9.48,3.33,18.45,6.53"/></g></g></g><g class="cls-2"><g class="cls-37"><g class="cls-2"><path class="cls-34" d="M479,614.14,476.83,646c-1.63.34-3.17.71-4.6,1.11l2.2-31.84c1.44-.4,3-.77,4.61-1.11"/><path class="cls-38" d="M474.43,615.25l-2.2,31.84a48.51,48.51,0,0,0-5,1.65l2.2-31.84a50.16,50.16,0,0,1,5-1.65"/></g></g></g><g class="cls-2"><g class="cls-39"><g class="cls-2"><path class="cls-28" d="M454.88,618.4l-2.21,31.84q-8.26-2.94-16.93-6L438,612.42q8.66,3,16.93,6"/></g></g></g><g class="cls-2"><g class="cls-40"><g class="cls-2"><path class="cls-8" d="M454.87,618.4l-2.2,31.84c-.2.26-.39.51-.56.77l2.21-31.84c.17-.26.36-.51.55-.77"/><path class="cls-7" d="M454.32,619.17,452.11,651a11.29,11.29,0,0,0-1,1.9l2.21-31.84a9.72,9.72,0,0,1,1-1.9"/></g></g></g><g class="cls-2"><g class="cls-41"><g class="cls-2"><path class="cls-7" d="M454.32,619.17,452.11,651a11.29,11.29,0,0,0-1,1.9l2.21-31.84a9.72,9.72,0,0,1,1-1.9"/></g></g></g><g class="cls-2"><g class="cls-42"><g class="cls-2"><path class="cls-4" d="M493.92,625.76l-2.21,31.84q-11.73-4.29-24.5-8.87l2.2-31.84q12.78,4.59,24.51,8.87"/></g></g></g><polygon class="cls-11" points="738.28 582.93 728.65 593.09 334.28 365.39 343.9 355.24 738.28 582.93"/><g class="cls-2"><g class="cls-43"><g class="cls-2"><path class="cls-7" d="M504.33,611.59l-2.21,31.84a49.28,49.28,0,0,1-3.67,6.64l2.21-31.84a49.28,49.28,0,0,0,3.67-6.64"/><path class="cls-8" d="M500.66,618.23l-2.21,31.84a36.08,36.08,0,0,1-6.74,7.53l2.21-31.84a36.08,36.08,0,0,0,6.74-7.53"/></g></g></g><g class="cls-2"><g class="cls-44"><g class="cls-2"><path class="cls-25" d="M462.35,621.07l-2.21,31.84a7,7,0,0,0-.88,1.07l2.21-31.84a7,7,0,0,1,.88-1.07"/><path class="cls-38" d="M461.47,622.14,459.26,654a5.81,5.81,0,0,0-.53,1,4.91,4.91,0,0,0-.24.74l2.21-31.84a5.06,5.06,0,0,1,.77-1.71"/><path class="cls-34" d="M460.7,623.85l-2.21,31.84a5.72,5.72,0,0,0-.12.83l2.21-31.84a5.72,5.72,0,0,1,.12-.83"/></g></g></g><g class="cls-2"><g class="cls-45"><g class="cls-2"><path class="cls-38" d="M512.92,611.59l-2.21,31.84-.37.78a60.47,60.47,0,0,1-4.77,8.86l2.21-31.84a60.47,60.47,0,0,0,4.77-8.86c.11-.25.24-.51.37-.78"/><path class="cls-25" d="M507.78,621.23l-2.21,31.84a41.79,41.79,0,0,1-6.23,7.33l2.21-31.84a41.79,41.79,0,0,0,6.23-7.33"/></g></g></g><g class="cls-2"><g class="cls-46"><g class="cls-2"><path class="cls-28" d="M487.58,630.18,485.37,662q-12.08-4.41-25.23-9.11l2.21-31.84q13.15,4.71,25.23,9.11"/></g></g></g><g class="cls-2"><g class="cls-47"><g class="cls-2"><path class="cls-8" d="M430.48,609.79l-2.21,31.84c-.35.5-.69,1-1,1.48l2.21-31.84c.33-.49.67-1,1-1.48"/><path class="cls-7" d="M429.46,611.27l-2.21,31.84a37,37,0,0,0-5.57,11.83l2.21-31.84a37,37,0,0,1,5.57-11.83"/><path class="cls-6" d="M423.89,623.1l-2.21,31.84a19,19,0,0,0-.48,3.06l2.21-31.84a19,19,0,0,1,.48-3.06"/></g></g></g><g class="cls-2"><g class="cls-48"><g class="cls-2"><path class="cls-25" d="M438,612.42l-2.21,31.84c-.49.67-.95,1.33-1.38,2l2.21-31.84c.43-.64.89-1.3,1.38-2"/><path class="cls-38" d="M436.57,614.39l-2.21,31.84a32.13,32.13,0,0,0-4.84,10.11l2.2-31.84a32.41,32.41,0,0,1,4.85-10.11"/><path class="cls-34" d="M431.72,624.5l-2.2,31.84a13.45,13.45,0,0,0-.35,2.24l2.21-31.85a13.43,13.43,0,0,1,.34-2.23"/></g></g></g><g class="cls-2"><g class="cls-49"><g class="cls-2"><path class="cls-4" d="M442.42,636.46l-2.21,31.84a25.18,25.18,0,0,1-7.22-2.52,8.89,8.89,0,0,1-2.26-1.77,7.15,7.15,0,0,1-1.56-5.44l2.2-31.84a7.2,7.2,0,0,0,1.57,5.44,8.89,8.89,0,0,0,2.26,1.77,25.07,25.07,0,0,0,7.22,2.52"/></g></g></g><g class="cls-2"><g class="cls-50"><g class="cls-2"><path class="cls-4" d="M555.71,641.53l-2.21,31.84c-11.54-8.62-18.22-18.76-23.6-26.9l-1.32-2,2.21-31.84,1.32,2c5.37,8.14,12,18.28,23.6,26.9"/></g></g></g><g class="cls-2"><g class="cls-51"><g class="cls-2"><path class="cls-4" d="M468.25,636.8,466,668.64c-5.32-4.89-7.89-8.94-7.67-12.12l2.21-31.84q-.33,4.77,7.67,12.12"/></g></g></g><g class="cls-2"><g class="cls-52"><g class="cls-2"><path class="cls-7" d="M487.58,630.18,485.37,662a54.85,54.85,0,0,1-12.51,5.16l2.21-31.84a54.85,54.85,0,0,0,12.51-5.16"/><path class="cls-6" d="M475.07,635.34l-2.21,31.84c-1.53.42-3.16.8-4.87,1.13l-1.95.33,2.21-31.84,1.95-.33c1.71-.33,3.34-.71,4.87-1.13"/></g></g></g><g class="cls-2"><g class="cls-53"><g class="cls-2"><path class="cls-28" d="M459.22,637.65,457,669.49c-4.34-4.68-6.91-9.3-6.61-13.62L452.61,624c-.3,4.32,2.27,8.94,6.61,13.62"/></g></g></g><g class="cls-2"><g class="cls-54"><g class="cls-2"><path class="cls-15" d="M459.22,637.65,457,669.49c-2.3.09-4.6.08-6.85,0l2.21-31.84c2.25.1,4.55.1,6.85,0"/><path class="cls-14" d="M452.37,637.63l-2.21,31.84a61.46,61.46,0,0,1-10-1.17l2.21-31.84a61.46,61.46,0,0,0,9.95,1.17"/><path class="cls-4" d="M442.42,636.46l-2.21,31.84a25.18,25.18,0,0,1-7.22-2.52,8.89,8.89,0,0,1-2.26-1.77,7.15,7.15,0,0,1-1.56-5.44l2.2-31.84a7.2,7.2,0,0,0,1.57,5.44,8.89,8.89,0,0,0,2.26,1.77,25.07,25.07,0,0,0,7.22,2.52"/></g></g></g><g class="cls-2"><g class="cls-55"><g class="cls-2"><path class="cls-25" d="M495.75,633.16,493.54,665c-.78.53-1.73,1.13-2.84,1.78l2.2-31.84c1.12-.65,2.07-1.25,2.85-1.78"/><path class="cls-38" d="M492.9,634.94l-2.2,31.84A63.94,63.94,0,0,1,475.79,673l2.2-31.84a63.57,63.57,0,0,0,14.91-6.22"/><path class="cls-34" d="M478,641.16,475.79,673c-1.11.3-2.26.59-3.45.85L474.55,642c1.19-.26,2.34-.55,3.44-.85"/></g></g></g><g class="cls-2"><g class="cls-56"><g class="cls-2"><path class="cls-4" d="M568.14,683.6l-2.21,31.84c-17.06-3.61-43.32-11-68-25.11l-.7-.4a242.12,242.12,0,0,1-24.91-16.08L474.55,642a240.59,240.59,0,0,0,24.91,16.07l.7.41c24.66,14.15,50.91,21.5,68,25.11"/></g></g></g><g class="cls-2"><g class="cls-57"><g class="cls-2"><path class="cls-28" d="M554.08,648.58l-2.21,31.84c-1.3-.87-2.57-1.76-3.81-2.69-12.57-9.38-19.9-20.5-25.26-28.62-1-1.57-2.33-3.54-3.64-5.35l2.21-31.84c1.3,1.81,2.61,3.78,3.64,5.35,5.36,8.12,12.69,19.24,25.25,28.62,1.24.92,2.52,1.82,3.82,2.69"/></g></g></g><g class="cls-2"><g class="cls-58"><g class="cls-2"><path class="cls-4" d="M554.08,648.58l-2.21,31.84q-22.57-9-52.53-20l2.21-31.84q29.93,11,52.53,20"/></g></g></g><path class="cls-59" d="M501.55,628.56c6.23-5.83,9-11.88,11-16.19.11-.25.24-.51.37-.78q4.13.07,8.45.32c1.3,1.82,2.61,3.79,3.64,5.36,5.36,8.12,12.69,19.24,25.25,28.61,1.24.93,2.52,1.83,3.82,2.7Q531.5,639.6,501.55,628.56Z"/><g class="cls-2"><g class="cls-60"><g class="cls-2"><path class="cls-23" d="M465.38,643.44l-2.21,31.84a97.38,97.38,0,0,1-13.33.37l2.21-31.84a97.43,97.43,0,0,0,13.33-.37"/><path class="cls-22" d="M452.05,643.81l-2.21,31.84a70.27,70.27,0,0,1-11.39-1.37l2.21-31.84a70.13,70.13,0,0,0,11.39,1.37"/><path class="cls-28" d="M440.66,642.44l-2.21,31.84a34.48,34.48,0,0,1-10.08-3.6,16.43,16.43,0,0,1-4.2-3.33,12.3,12.3,0,0,1-3-9.35l2.2-31.84a12.34,12.34,0,0,0,3,9.35,16.55,16.55,0,0,0,4.19,3.33,34.65,34.65,0,0,0,10.09,3.6"/></g></g></g><g class="cls-2"><g class="cls-61"><g class="cls-2"><path class="cls-28" d="M638.72,659.77l-2.21,31.84c.13-1.78-3.55-8.08-22.72-20.37q-2.55-1.63-5.19-3.16l2.21-31.84q2.64,1.53,5.19,3.16c19.17,12.29,22.85,18.59,22.72,20.37"/></g></g></g><g class="cls-2"><g class="cls-62"><g class="cls-2"><path class="cls-6" d="M638.72,659.77l-2.21,31.84a.61.61,0,0,1,0,.15l2.21-31.84a.68.68,0,0,0,0-.15"/><path class="cls-7" d="M638.7,659.92l-2.21,31.84a.47.47,0,0,1-.07.19l0,0,2.21-31.84,0,0a.84.84,0,0,0,.07-.19"/><path class="cls-8" d="M638.61,660.13,636.4,692a2.1,2.1,0,0,1-.66.54L638,660.66a2.11,2.11,0,0,0,.66-.53"/><path class="cls-7" d="M638,660.66l-2.21,31.85a11.28,11.28,0,0,1-2.4.93l2.21-31.85a10.29,10.29,0,0,0,2.4-.93"/><path class="cls-6" d="M635.55,661.59l-2.21,31.85a28.24,28.24,0,0,1-4.11.77l-.79.09,2.21-31.84.79-.09a28.05,28.05,0,0,0,4.11-.78"/><path class="cls-15" d="M630.65,662.46l-2.21,31.84a72.1,72.1,0,0,1-10.51.23l2.21-31.84a72.13,72.13,0,0,0,10.51-.23"/><path class="cls-14" d="M620.14,662.69l-2.21,31.84a128,128,0,0,1-20.65-2.73L599.49,660a129.14,129.14,0,0,0,20.65,2.73"/><path class="cls-4" d="M599.49,660l-2.21,31.84c-12-2.55-24.85-6.88-35.83-13.22a81.25,81.25,0,0,1-8-5.21l2.21-31.84a81.25,81.25,0,0,0,7.95,5.21c11,6.34,23.8,10.67,35.83,13.22"/></g></g></g><path class="cls-59" d="M555.71,641.53c-11.55-8.62-18.23-18.76-23.6-26.9l-1.32-2c26.31,2.53,55.86,9.67,80,23.61q2.64,1.53,5.19,3.16c20.69,13.27,23.33,19.56,22.63,20.71-.32.51-2.23,1.65-7.19,2.26-15.3,1.88-45.39-2.7-67.78-15.63A81.25,81.25,0,0,1,555.71,641.53Z"/><g class="cls-2"><g class="cls-63"><g class="cls-2"><path class="cls-34" d="M646.72,660.3l-2.2,31.84a6.89,6.89,0,0,1-.14.91l2.21-31.85a5.27,5.27,0,0,0,.13-.9"/><path class="cls-38" d="M646.59,661.2l-2.21,31.85a6,6,0,0,1-.71,1.7l-.15.24,2.21-31.84.15-.24a5.91,5.91,0,0,0,.71-1.71"/><path class="cls-25" d="M645.73,663.15,643.52,695a8.5,8.5,0,0,1-2.82,2.51l2.2-31.84a8.65,8.65,0,0,0,2.83-2.51"/><path class="cls-38" d="M642.9,665.66l-2.2,31.84a18.84,18.84,0,0,1-4.37,1.75l2.21-31.84a18.57,18.57,0,0,0,4.36-1.75"/><path class="cls-34" d="M638.54,667.41l-2.21,31.84a38.81,38.81,0,0,1-5.56,1.06l-.87.1,2.21-31.84.87-.1a39.08,39.08,0,0,0,5.56-1.06"/><path class="cls-23" d="M632.11,668.57l-2.21,31.84a82.17,82.17,0,0,1-12,.26l2.21-31.84a82.21,82.21,0,0,0,12-.26"/><path class="cls-22" d="M620.09,668.83l-2.21,31.84a141.79,141.79,0,0,1-22.76-3l2.21-31.84a141.79,141.79,0,0,0,22.76,3"/><path class="cls-28" d="M597.33,665.85l-2.21,31.84q-2.43-.53-4.89-1.12l2.2-31.84q2.48.6,4.9,1.12"/></g></g></g><g class="cls-2"><g class="cls-64"><g class="cls-2"><path class="cls-4" d="M625.56,687.43l-2.21,31.84c.21-3-2.83-6.75-12.89-12.56-4.92-2.84-11.52-6.17-20.23-10.15l2.2-31.84c8.72,4,15.32,7.31,20.24,10.15,10.06,5.81,13.1,9.56,12.89,12.56"/></g></g></g><g class="cls-2"><g class="cls-65"><g class="cls-2"><path class="cls-4" d="M625.56,687.43l-2.21,31.84c.21-3-2.83-6.75-12.89-12.56-4.92-2.84-11.52-6.17-20.23-10.15l2.2-31.84c8.72,4,15.32,7.31,20.24,10.15,10.06,5.81,13.1,9.56,12.89,12.56"/></g></g></g><g class="cls-2"><g class="cls-66"><g class="cls-2"><path class="cls-8" d="M617.46,686.76l-2.2,31.84,0,0,2.21-31.84,0,0"/><path class="cls-7" d="M617.44,686.78l-2.21,31.84a5.48,5.48,0,0,1-1.27.48l2.2-31.84a5.59,5.59,0,0,0,1.28-.48"/><path class="cls-6" d="M616.16,687.26,614,719.1a22.22,22.22,0,0,1-3.6.62l2.21-31.84a21.87,21.87,0,0,0,3.59-.62"/><path class="cls-15" d="M612.57,687.88l-2.21,31.84a81.79,81.79,0,0,1-11.66.19l2.2-31.84a81.9,81.9,0,0,0,11.67-.19"/><path class="cls-14" d="M600.9,688.07l-2.2,31.84A190.09,190.09,0,0,1,573.78,717c-2.32-.42-4.95-.92-7.85-1.54l2.21-31.84c2.9.62,5.53,1.12,7.85,1.54a191.9,191.9,0,0,0,24.91,2.93"/><path class="cls-4" d="M568.14,683.6l-2.21,31.84c-17.06-3.61-43.32-11-68-25.11l-.7-.4a242.12,242.12,0,0,1-24.91-16.08L474.55,642a240.59,240.59,0,0,0,24.91,16.07l.7.41c24.66,14.15,50.91,21.5,68,25.11"/></g></g></g><path class="cls-67" d="M625.21,688.86c-.87,2-3.28,3.53-7.16,4.42-17.1,3.91-75.83-3.1-122.5-29.88-10.85-6.27-21.94-13.08-30.17-20-11.71,1.14-26.32.3-34.81-4.6a16.55,16.55,0,0,1-4.19-3.33c-5.23-6-3.49-15.07,4.1-25.72q-20.21-7.08-42.51-14.74l3-5.62q22.89,7.86,43.59,15.12c7.27-8.56,17.92-17.87,31.42-27.17l5.43,4.67c-12.88,8.88-22.64,17.52-29.3,25.16q9.48,3.33,18.45,6.53c4-2.28,9.38-4.15,16.1-5.56a155.6,155.6,0,0,1,30.77-2.83,9.35,9.35,0,0,1,7.3-4.78,10.59,10.59,0,0,1,6.58,1.36A18.29,18.29,0,0,1,526,606c6.39.48,12.88,1.21,19.31,2.19,19.12,2.94,46.22,9.31,70.19,23.15q2.78,1.61,5.49,3.34a156.35,156.35,0,0,1,15.35,11c9,7.56,12.09,13,9.56,17.17-1.74,2.85-6.09,4.72-12.9,5.56-9.48,1.17-24.6.18-40.55-3.74,8.72,4,15.32,7.3,20.24,10.14C624.39,681.64,626.58,685.62,625.21,688.86ZM576,685.14c24.39,4.35,38.81,3.23,41.48,1.62-.37-.77-2-2.72-8.93-6.72s-18.82-9.89-39.85-18.66c-18.89-7.88-43.27-17.32-72.94-28.22a62.5,62.5,0,0,1-21.2,8.85,242.12,242.12,0,0,0,24.91,16.08l.7.4C529,675,560,682.29,576,685.14m34.82-48.9c-24.16-13.94-53.7-21.08-80-23.61l1.32,2c5.37,8.14,12,18.28,23.6,26.9a81.25,81.25,0,0,0,7.95,5.21c22.39,12.93,52.48,17.52,67.78,15.63,5-.61,6.87-1.75,7.19-2.26.7-1.15-1.94-7.44-22.63-20.71q-2.55-1.64-5.19-3.16m-89.44-24.32q-4.32-.25-8.45-.33c-.13.27-.26.53-.37.78-2,4.31-4.77,10.36-11,16.19q29.93,11,52.53,20c-1.3-.87-2.58-1.77-3.82-2.69-12.56-9.38-19.89-20.5-25.25-28.62-1-1.57-2.34-3.54-3.64-5.35M435.2,634c5,2.86,14.57,4.06,24,3.7-5.35-5.77-8-11.45-5.92-16.58a11.16,11.16,0,0,1,1.58-2.67q-8.26-2.94-16.93-6c-6.58,9-8.22,16.1-5,19.75A9.14,9.14,0,0,0,435.2,634M479,614.14a59.59,59.59,0,0,0-9.63,2.76q12.78,4.58,24.51,8.87a39.42,39.42,0,0,0,10.41-14.18A140.72,140.72,0,0,0,479,614.14m-8.84,22.33a55.93,55.93,0,0,0,17.38-6.29q-12.07-4.41-25.23-9.11a6.26,6.26,0,0,0-1.41,2q-2.07,5.08,7.31,13.69l1.95-.33"/><path class="cls-59" d="M504.33,611.59a39.31,39.31,0,0,1-10.41,14.17q-11.73-4.29-24.51-8.87a61.7,61.7,0,0,1,9.63-2.76A141.74,141.74,0,0,1,504.33,611.59Z"/><path class="cls-59" d="M462.35,621.06q13.15,4.73,25.23,9.12a56.19,56.19,0,0,1-17.38,6.29l-1.95.33c-6.24-5.73-8.69-10.31-7.31-13.69A6.4,6.4,0,0,1,462.35,621.06Z"/><path class="cls-59" d="M453.3,621.07c-2.08,5.13.57,10.8,5.92,16.58-9.45.36-19.05-.84-24-3.71a8.89,8.89,0,0,1-2.26-1.77c-3.21-3.65-1.57-10.76,5-19.75q8.66,3,16.92,6A11.25,11.25,0,0,0,453.3,621.07Z"/><g class="cls-2"><g class="cls-68"><g class="cls-2"><path class="cls-4" d="M646.72,660.3l-2.2,31.84c.26-3.77-3.13-8.48-10.41-14.56a155.63,155.63,0,0,0-15.34-11q-2.73-1.74-5.5-3.34c-18.56-10.71-39-17-56.14-20.59l2.21-31.84c17.15,3.63,37.58,9.87,56.14,20.59q2.78,1.61,5.49,3.34a154.7,154.7,0,0,1,15.35,11c7.27,6.08,10.67,10.79,10.4,14.56"/></g></g></g><g class="cls-2"><g class="cls-69"><g class="cls-2"><path class="cls-34" d="M625.56,687.43l-2.21,31.84a3.85,3.85,0,0,1-.1.68l2.21-31.84a5.06,5.06,0,0,0,.1-.68"/><path class="cls-38" d="M625.46,688.11,623.25,720a5.2,5.2,0,0,1-.25.76l2.21-31.85a4.71,4.71,0,0,0,.25-.75"/></g></g></g><path class="cls-59" d="M568.69,661.37c21,8.78,33,14.72,39.85,18.67s8.56,6,8.92,6.72c-2.67,1.61-17.08,2.72-41.47-1.62-16-2.85-47-10.1-75.83-26.65l-.7-.41A240.59,240.59,0,0,1,474.55,642a62.4,62.4,0,0,0,21.11-8.79C525.41,644.06,549.8,653.5,568.69,661.37Z"/><g class="cls-2"><g class="cls-70"><g class="cls-2"><path class="cls-38" d="M625.21,688.86,623,720.71a5.55,5.55,0,0,1-.43.79l2.21-31.84a5.15,5.15,0,0,0,.43-.8"/><path class="cls-25" d="M624.78,689.66l-2.21,31.84a6.75,6.75,0,0,1-2.22,2l2.21-31.84a6.85,6.85,0,0,0,2.22-2"/><path class="cls-38" d="M622.56,691.63l-2.21,31.84a14.65,14.65,0,0,1-3.45,1.39L619.1,693a14.57,14.57,0,0,0,3.46-1.39"/><path class="cls-34" d="M619.1,693l-2.2,31.84c-.34.09-.69.18-1.06.26a34.49,34.49,0,0,1-4.14.65l2.2-31.84a34.68,34.68,0,0,0,4.15-.65c.37-.08.72-.17,1.05-.26"/><path class="cls-23" d="M613.9,693.93l-2.2,31.84a91.2,91.2,0,0,1-13.16.23l2.21-31.84a91.06,91.06,0,0,0,13.15-.23"/><path class="cls-22" d="M600.75,694.16,598.54,726a221,221,0,0,1-35-4.75l2.21-31.84a221,221,0,0,0,35,4.75"/><path class="cls-28" d="M565.79,689.41l-2.21,31.84c-22.17-4.7-47.62-13-70.24-26-10.85-6.27-21.94-13.08-30.17-20l2.21-31.84c8.23,6.88,19.32,13.69,30.17,20,22.62,13,48.07,21.31,70.24,26"/></g></g></g><path class="cls-59" d="M1040.1,239.21,675.6,28.77c-39.36-22.73-94-17.18-122,12.39l-420,443.09c-28,29.58-18.84,72,20.52,94.71L518.58,789.4c39.36,22.73,94,17.17,122-12.4l420-443.09C1088.65,304.33,1079.46,261.94,1040.1,239.21ZM645.88,662.91c-1.74,2.85-6.09,4.72-12.9,5.56-9.48,1.17-24.6.19-40.55-3.74,8.72,4,15.31,7.31,20.23,10.15,11.73,6.76,13.92,10.74,12.54,14-.86,2-3.28,3.53-7.15,4.41-17.1,3.91-75.84-3.1-122.83-30.07-10.52-6.08-21.61-12.89-29.84-19.77-11.72,1.14-26.32.3-34.81-4.6a16.83,16.83,0,0,1-4.2-3.33c-5.23-6-3.48-15.07,4.11-25.72q-20.21-7.08-42.51-14.74l3-5.62q22.89,7.86,43.58,15.12c7.28-8.56,17.93-17.87,31.43-27.17l5.43,4.67c-12.88,8.88-22.64,17.52-29.3,25.16q9.47,3.33,18.45,6.53c4-2.27,9.38-4.15,16.1-5.56a156.28,156.28,0,0,1,30.77-2.83,9.3,9.3,0,0,1,7.29-4.77,10.54,10.54,0,0,1,6.59,1.35A18.29,18.29,0,0,1,526,606c6.39.48,12.87,1.21,19.31,2.2,19.12,2.92,46.21,9.3,70.18,23.14q2.79,1.61,5.5,3.34a156.35,156.35,0,0,1,15.35,11c9,7.57,12.09,13,9.56,17.17m92.4-80-9.63,10.16L334.28,365.39l9.62-10.15L738.28,582.93h0m52.15-55L396.05,300.22l9.63-10.16L800.06,517.75l-9.63,10.16m61.78-65.18L457.83,235l9.63-10.16,394.38,227.7-9.63,10.15M914,397.56,519.61,169.87l9.63-10.17L923.62,387.4,914,397.56m61.78-65.18L581.39,104.69,591,94.53,985.4,322.23l-9.63,10.15"/><polygon class="cls-11" points="923.63 387.4 913.99 397.56 519.61 169.87 529.25 159.7 923.63 387.4"/><polygon class="cls-3" points="1060.62 333.9 1058.42 365.75 638.41 808.84 640.62 777 1060.62 333.9"/><polygon class="cls-4" points="518.58 789.39 516.37 821.24 151.88 610.79 154.08 578.95 518.58 789.39"/><g class="cls-2"><g class="cls-71"><g class="cls-2"><path class="cls-8" d="M640.62,777l-2.21,31.84a76,76,0,0,1-16.81,13.22l2.21-31.84A76.27,76.27,0,0,0,640.62,777"/><path class="cls-7" d="M623.81,790.22l-2.21,31.84a93.11,93.11,0,0,1-22.15,9.26l2.21-31.84a93.11,93.11,0,0,0,22.15-9.26"/><path class="cls-6" d="M601.66,799.48l-2.21,31.84a106.8,106.8,0,0,1-17.32,3.28l2.21-31.84a106.8,106.8,0,0,0,17.32-3.28"/><path class="cls-15" d="M584.34,802.76l-2.21,31.84a114,114,0,0,1-16.86.52l2.21-31.84a114.06,114.06,0,0,0,16.86-.52"/><path class="cls-14" d="M567.48,803.28l-2.21,31.84a113.61,113.61,0,0,1-18.51-2.35l2.2-31.84a113.73,113.73,0,0,0,18.52,2.35"/><path class="cls-4" d="M549,800.93l-2.2,31.84a104.18,104.18,0,0,1-30.39-11.53l2.21-31.85A103.86,103.86,0,0,0,549,800.93"/></g></g></g></g><g id="layer1"><g class="cls-2"><path d="M413.67,579c4.66,5,3,14.28-3.76,20.62s-16,7.37-20.62,2.32-3-14.29,3.76-20.62S409,573.9,413.67,579Zm-.18.17c-4.59-5-13.68-4-20.31,2.28s-8.29,15.34-3.71,20.31,13.68,4,20.31-2.28,8.29-15.33,3.71-20.31"/><g class="cls-2"><g class="cls-72"><g class="cls-2"><path d="M413.52,578.79,392,556.52c-2.93-3-7.57-3.75-12.27-2.35l21.51,22.27c4.69-1.4,9.34-.68,12.27,2.35"/><path d="M401.25,576.44l-21.51-22.27c-.55.17-1.11.36-1.67.59L399.58,577c.56-.22,1.11-.42,1.67-.59"/><path d="M399.58,577l-21.51-22.27c-.42.17-.84.36-1.27.57l21.51,22.27c.42-.21.85-.4,1.27-.57"/><path d="M398.31,577.6,376.8,555.33c-.36.18-.73.38-1.1.59l21.51,22.27c.36-.21.73-.41,1.1-.59"/><path d="M397.21,578.19,375.7,555.92l-1,.6,21.51,22.27,1-.6"/><path d="M396.22,578.79l-21.51-22.27c-.31.2-.61.4-.91.62l21.51,22.27c.3-.21.6-.42.91-.62"/><path d="M395.31,579.41,373.8,557.14c-.29.21-.58.43-.86.66l21.5,22.27.87-.66"/><path d="M394.44,580.07l-21.5-22.27c-.28.22-.56.45-.84.7l21.51,22.27c.27-.24.55-.48.83-.7"/><path d="M393.61,580.77,372.1,558.5l-.56.5-.25.24,21.51,22.28.25-.24c.19-.18.37-.35.56-.51"/><path d="M392.8,581.52l-21.51-22.28c-.26.27-.53.53-.78.8L392,582.31c.25-.27.51-.53.78-.79"/><path d="M392,582.31,370.51,560c-.26.28-.51.57-.76.86l21.51,22.27c.24-.29.5-.58.76-.86"/><path d="M391.26,583.17,369.75,560.9c-.26.31-.52.63-.76,1l21.51,22.27c.24-.32.49-.64.76-1"/><path d="M390.5,584.12,369,561.85c-.27.36-.52.72-.76,1.09l21.5,22.27c.24-.37.5-.73.77-1.09"/><path d="M389.73,585.21l-21.5-22.27c-.29.43-.56.87-.8,1.31l21.5,22.27c.25-.44.52-.88.8-1.31"/><path d="M388.93,586.52l-21.5-22.27a19.84,19.84,0,0,0-.94,1.91L388,588.43a19.73,19.73,0,0,1,.93-1.91"/><path d="M388,588.43l-21.51-22.27a16.39,16.39,0,0,0-1.32,5.53L386.68,594a16.39,16.39,0,0,1,1.32-5.53"/><path d="M386.68,594l-21.51-22.27a14.07,14.07,0,0,0,0,1.84l21.51,22.27a11.27,11.27,0,0,1,0-1.84"/><path d="M386.71,595.8,365.2,573.53a12.72,12.72,0,0,0,.18,1.28l21.51,22.27a12.72,12.72,0,0,1-.18-1.28"/><path d="M386.89,597.08l-21.51-22.27c.08.36.16.7.26,1l21.51,22.27c-.1-.34-.19-.68-.26-1"/><path d="M387.15,598.12l-21.51-22.27c.1.3.2.6.32.89L387.47,599a9.44,9.44,0,0,1-.32-.89"/><path d="M387.47,599,366,576.74c.11.27.23.53.36.79l21.51,22.27c-.13-.26-.25-.52-.36-.79"/><path d="M387.83,599.8l-21.51-22.27q.19.38.42.72l21.5,22.28c-.15-.24-.28-.48-.41-.73"/><path d="M388.24,600.53l-21.5-22.28a6.11,6.11,0,0,0,.46.67l21.5,22.27c-.16-.21-.31-.44-.46-.66"/><path d="M388.7,601.19l-21.5-22.27a6.21,6.21,0,0,0,.52.63l21.5,22.27c-.18-.2-.35-.41-.52-.63"/><path d="M389.22,601.82l-21.5-22.27.06.08.16.16,21.5,22.27-.15-.16-.07-.08"/></g></g></g><g class="cls-2"><g class="cls-73"><g class="cls-2"><path d="M391.83,556.7,413.34,579c-2.89-3-7.46-3.7-12.09-2.32l-21.5-22.27c4.62-1.38,9.19-.67,12.08,2.32"/><path d="M379.75,554.38l21.5,22.27c-.55.17-1.09.36-1.64.58L378.1,555c.55-.22,1.1-.41,1.65-.58"/><path d="M378.1,555l21.51,22.27c-.42.17-.84.36-1.25.56l-21.51-22.27c.42-.2.83-.39,1.25-.56"/><path d="M376.85,555.52l21.51,22.27c-.36.18-.73.38-1.09.58l-21.5-22.27c.36-.2.72-.4,1.08-.58"/><path d="M375.77,556.1l21.5,22.27c-.32.19-.65.39-1,.6l-21.51-22.28,1-.59"/><path d="M374.79,556.69,396.3,579c-.3.19-.6.39-.9.61l-21.51-22.27c.3-.22.6-.42.9-.62"/><path d="M373.89,557.31l21.51,22.27c-.29.2-.57.42-.85.64L373,558c.28-.22.57-.44.85-.64"/><path d="M373,558l21.51,22.27c-.28.22-.55.45-.82.69l-21.51-22.27c.27-.24.55-.47.82-.69"/><path d="M372.22,558.64l21.51,22.27-.55.5-.25.24-21.51-22.27.25-.24.55-.5"/><path d="M371.42,559.38l21.51,22.27-.77.78-21.5-22.27c.24-.26.5-.52.76-.78"/><path d="M370.66,560.16l21.5,22.27c-.26.28-.51.56-.75.85L369.9,561c.25-.29.5-.57.76-.85"/><path d="M369.9,561l21.51,22.27c-.26.31-.51.62-.75.94L369.16,562c.23-.32.48-.63.74-.94"/><path d="M369.16,562l21.5,22.27c-.26.35-.51.71-.75,1.07L368.4,563c.24-.36.49-.72.76-1.07"/><path d="M368.4,563l21.51,22.27c-.28.42-.55.86-.79,1.29l-21.51-22.27c.25-.43.51-.87.79-1.29"/><path d="M367.61,564.31l21.51,22.27c-.34.62-.65,1.25-.92,1.88l-21.5-22.27a19.06,19.06,0,0,1,.91-1.88"/><path d="M366.7,566.19l21.5,22.27a16.16,16.16,0,0,0-1.3,5.44l-21.51-22.27a16.42,16.42,0,0,1,1.31-5.44"/><path d="M365.39,571.63,386.9,593.9a13.74,13.74,0,0,0,0,1.82l-21.51-22.27a13.74,13.74,0,0,1,0-1.82"/><path d="M365.42,573.45l21.51,22.27q.06.64.18,1.26L365.6,574.71q-.12-.62-.18-1.26"/><path d="M365.6,574.71,387.11,597c.07.35.16.69.26,1l-21.51-22.27c-.1-.33-.19-.67-.26-1"/><path d="M365.86,575.73,387.37,598a9.18,9.18,0,0,0,.31.88l-21.51-22.27a9.18,9.18,0,0,1-.31-.88"/><path d="M366.17,576.61l21.51,22.27a6.91,6.91,0,0,0,.36.78l-21.51-22.27c-.13-.25-.25-.52-.36-.78"/><path d="M366.53,577.39,388,599.66c.12.24.26.48.4.71L366.93,578.1c-.14-.23-.28-.47-.4-.71"/><path d="M366.93,578.1l21.51,22.27a7.75,7.75,0,0,0,.46.66l-21.51-22.27c-.16-.21-.31-.43-.46-.66"/><path d="M367.39,578.76,388.9,601c.16.21.33.42.51.62L367.9,579.38c-.18-.2-.35-.41-.51-.62"/><path d="M367.9,579.38l21.51,22.27.06.07.15.16-21.5-22.27-.15-.16-.07-.07"/></g></g></g><g class="cls-2"><g class="cls-74"><g class="cls-2"><path d="M392,556.86l21.51,22.27-.15-.16L391.83,556.7l.15.16"/></g></g></g><g class="cls-2"><g class="cls-75"><g class="cls-2"><path d="M413.67,579l-21.5-22.28c-.05,0-.11-.1-.16-.16l21.51,22.27.15.17"/></g></g></g><g class="cls-2"><g class="cls-76"><g class="cls-2"><path d="M368.12,579.61l21.5,22.27c2.89,3,7.47,3.7,12.09,2.32L380.2,581.93c-4.62,1.38-9.19.67-12.08-2.32"/><path d="M380.2,581.93l21.51,22.27a16.85,16.85,0,0,0,1.64-.58l-21.5-22.27c-.55.22-1.1.41-1.65.58"/><path d="M381.85,581.35l21.5,22.27c.42-.17.84-.36,1.25-.56l-21.5-22.27c-.42.2-.83.39-1.25.56"/><path d="M383.1,580.79l21.5,22.27c.37-.18.73-.37,1.09-.58l-21.51-22.27c-.36.21-.72.4-1.08.58"/><path d="M384.18,580.21l21.51,22.27c.33-.19.65-.38,1-.59l-21.51-22.27-1,.59"/><path d="M385.16,579.62l21.51,22.27c.3-.2.6-.4.89-.62L386.06,579c-.3.22-.6.42-.9.62"/><path d="M386.06,579l21.5,22.27c.29-.2.57-.42.85-.64l-21.5-22.27c-.28.22-.57.44-.85.64"/><path d="M386.91,578.36l21.5,22.27c.28-.22.55-.45.82-.69l-21.5-22.27c-.27.24-.55.47-.82.69"/><path d="M387.73,577.67l21.5,22.27c.19-.16.37-.33.55-.5l.25-.24-21.5-22.27-.25.24-.55.5"/><path d="M388.53,576.93,410,599.2c.27-.25.52-.52.77-.78l-21.51-22.27c-.24.26-.5.53-.76.78"/><path d="M389.29,576.15l21.51,22.27c.26-.28.51-.56.75-.85l-21.5-22.27c-.25.29-.5.57-.76.85"/><path d="M390.05,575.3l21.5,22.27q.39-.47.75-.93l-21.51-22.28c-.24.32-.48.63-.74.94"/><path d="M390.79,574.36l21.51,22.28c.26-.36.52-.71.75-1.07l-21.5-22.28c-.24.37-.49.72-.76,1.07"/><path d="M391.55,573.29l21.5,22.28c.29-.43.55-.86.79-1.3L392.34,572c-.25.43-.51.87-.79,1.29"/><path d="M392.34,572l21.5,22.27a19.16,19.16,0,0,0,.92-1.88l-21.51-22.27a19.06,19.06,0,0,1-.91,1.88"/><path d="M393.25,570.12l21.51,22.27a16.16,16.16,0,0,0,1.3-5.44l-21.5-22.27a16.42,16.42,0,0,1-1.31,5.44"/><path d="M394.56,564.68,416.06,587a11,11,0,0,0,0-1.82l-21.5-22.27a13.74,13.74,0,0,1,0,1.82"/><path d="M394.53,562.86,416,585.13q-.06-.64-.18-1.26l-21.5-22.27q.12.61.18,1.26"/><path d="M394.35,561.6l21.5,22.27c-.07-.35-.15-.69-.25-1l-21.51-22.27c.1.33.19.67.26,1"/><path d="M394.09,560.58l21.51,22.27c-.09-.3-.2-.59-.31-.88L393.78,559.7a9.18,9.18,0,0,1,.31.88"/><path d="M393.78,559.7,415.29,582q-.17-.39-.36-.78l-21.51-22.27q.19.39.36.78"/><path d="M393.42,558.92l21.51,22.27c-.13-.24-.26-.48-.41-.71L393,558.21a7.24,7.24,0,0,1,.41.71"/><path d="M393,558.21l21.51,22.27a7.66,7.66,0,0,0-.45-.66l-21.51-22.27a7.66,7.66,0,0,1,.45.66"/><path d="M392.56,557.55l21.51,22.27c-.16-.21-.33-.42-.51-.62l-21.51-22.27c.18.2.35.41.51.62"/><path d="M392.05,556.93l21.51,22.27-.07-.07L392,556.86l.07.07"/></g></g></g><g class="cls-2"><g class="cls-77"><g class="cls-2"><path d="M389.44,602.06l-21.5-22.27c2.93,3,7.57,3.75,12.27,2.35l21.5,22.27c-4.69,1.41-9.34.68-12.27-2.35"/><path d="M401.71,604.41l-21.5-22.27c.55-.17,1.11-.36,1.67-.59l21.5,22.27a17.47,17.47,0,0,1-1.67.59"/><path d="M403.38,603.82l-21.5-22.27c.42-.17.84-.36,1.27-.57l21.5,22.27c-.42.21-.84.4-1.27.57"/><path d="M404.65,603.25,383.15,581c.36-.18.73-.38,1.1-.59l21.5,22.28c-.36.2-.73.4-1.1.58"/><path d="M405.75,602.67l-21.5-22.28q.5-.28,1-.6l21.51,22.27-1,.61"/><path d="M406.75,602.06l-21.51-22.27c.3-.2.61-.4.91-.62l21.51,22.27c-.3.22-.61.42-.91.62"/><path d="M407.66,601.44l-21.51-22.27c.29-.21.58-.43.86-.66l21.51,22.27c-.29.23-.57.45-.86.66"/><path d="M408.52,600.78,387,578.51c.28-.22.56-.45.84-.7l21.5,22.28c-.27.24-.55.47-.83.69"/><path d="M409.35,600.09l-21.5-22.28.56-.5.25-.24,21.5,22.27-.25.24-.56.51"/><path d="M410.16,599.34l-21.5-22.27.78-.8,21.5,22.27c-.25.27-.51.54-.78.8"/><path d="M410.94,598.54l-21.5-22.27c.26-.28.51-.57.76-.86l21.51,22.27c-.25.29-.5.58-.77.86"/><path d="M411.71,597.68,390.2,575.41c.26-.31.52-.63.76-.95l21.51,22.27c-.25.32-.5.64-.76.95"/><path d="M412.47,596.73,391,574.46c.27-.36.52-.72.76-1.09l21.51,22.27c-.24.37-.5.73-.76,1.09"/><path d="M413.23,595.64l-21.51-22.27c.29-.43.56-.87.8-1.31L414,594.33c-.25.44-.51.88-.8,1.31"/><path d="M414,594.33l-21.51-22.27a19.84,19.84,0,0,0,.94-1.91L415,592.42a19.73,19.73,0,0,1-.93,1.91"/><path d="M415,592.42l-21.5-22.27a16.39,16.39,0,0,0,1.32-5.52l21.51,22.27a16.66,16.66,0,0,1-1.33,5.52"/><path d="M416.29,586.9l-21.51-22.27a14.19,14.19,0,0,0,0-1.85l21.5,22.27a12.61,12.61,0,0,1,0,1.85"/><path d="M416.25,585.05l-21.5-22.27a10.66,10.66,0,0,0-.19-1.28l21.51,22.27a9,9,0,0,1,.18,1.28"/><path d="M416.07,583.77,394.56,561.5a9.3,9.3,0,0,0-.26-1l21.51,22.27c.1.34.19.69.26,1"/><path d="M415.81,582.73,394.3,560.46a9.37,9.37,0,0,0-.31-.89l21.51,22.27c.11.29.22.59.31.89"/><path d="M415.5,581.84,394,559.57c-.11-.27-.23-.53-.36-.79l21.5,22.27a8.08,8.08,0,0,1,.37.79"/><path d="M415.13,581.05l-21.5-22.27q-.19-.37-.42-.72l21.51,22.27a6.37,6.37,0,0,1,.41.72"/><path d="M414.72,580.33l-21.51-22.27a6.11,6.11,0,0,0-.46-.67l21.51,22.27a7.92,7.92,0,0,1,.46.67"/><path d="M414.26,579.66l-21.51-22.27a6.21,6.21,0,0,0-.52-.63L413.74,579a7.91,7.91,0,0,1,.52.63"/><path d="M413.74,579l-21.51-22.27-.06-.08L413.67,579l.07.07"/></g></g></g><path d="M392.17,556.68c4.65,5.06,3,14.29-3.76,20.63s-16,7.37-20.63,2.32-3-14.29,3.76-20.63S387.51,551.63,392.17,556.68Zm-.19.18c-4.58-5-13.68-4-20.31,2.28s-8.29,15.34-3.7,20.31,13.68,4,20.31-2.28,8.29-15.34,3.7-20.31"/></g><g class="cls-2"><path class="cls-78" d="M392.17,556.68c4.65,5.06,3,14.29-3.76,20.63s-16,7.37-20.63,2.32-3-14.29,3.76-20.63S387.51,551.63,392.17,556.68Zm-.19.18c-4.58-5-13.68-4-20.31,2.28s-8.29,15.34-3.7,20.31,13.68,4,20.31-2.28,8.29-15.34,3.7-20.31"/><path class="cls-78" d="M396.91,552.22c6.47,7,4.13,19.85-5.22,28.65s-22.18,10.24-28.65,3.22-4.13-19.85,5.22-28.65S390.44,545.2,396.91,552.22Zm-4.74,4.46c-4.66-5-13.89-4-20.63,2.32s-8.41,15.57-3.76,20.63,13.89,4,20.63-2.32,8.41-15.57,3.76-20.63"/><path class="cls-78" d="M392,556.86c4.59,5,2.93,14.07-3.7,20.31s-15.73,7.26-20.31,2.28-2.93-14.07,3.7-20.31S387.4,551.88,392,556.86Zm-4.74,4.46c-2.78-3-8.28-2.39-12.29,1.38s-5,9.28-2.24,12.29,8.28,2.39,12.29-1.38,5-9.28,2.24-12.29"/><g class="cls-2"><g class="cls-79"><g class="cls-2"><path class="cls-4" d="M396.7,552l-25.81-26.73c-4.07-4.22-10.53-5.22-17.05-3.27l25.81,26.73c6.53-2,13-1,17.05,3.27"/><path class="cls-14" d="M379.65,548.73,353.84,522a23.8,23.8,0,0,0-2.32.82l25.81,26.73c.78-.32,1.55-.59,2.32-.82"/><path class="cls-15" d="M377.33,549.55l-25.81-26.73c-.59.24-1.18.5-1.76.79l25.81,26.73c.59-.29,1.17-.55,1.76-.79"/><path class="cls-6" d="M375.57,550.34l-25.81-26.73q-.76.38-1.53.81L374,551.15q.76-.43,1.53-.81"/><path class="cls-7" d="M374,551.15l-25.81-26.73-1.38.84L372.66,552q.69-.43,1.38-.84"/><path class="cls-8" d="M372.66,552l-25.81-26.73c-.42.28-.85.56-1.26.87l25.81,26.72c.41-.3.84-.58,1.26-.86"/><path class="cls-80" d="M371.4,552.85l-25.81-26.72c-.41.29-.81.59-1.2.91l25.81,26.73c.39-.32.79-.62,1.2-.92"/><path class="cls-81" d="M370.2,553.77,344.39,527c-.39.31-.78.63-1.16,1L369,554.74c.38-.34.77-.66,1.16-1"/><path class="cls-82" d="M369,554.74,343.23,528l-.78.7-.35.34,25.81,26.73.35-.34.78-.7"/><path class="cls-83" d="M367.91,555.78,342.1,529.05c-.37.36-.73.73-1.08,1.1l25.81,26.73c.35-.37.71-.74,1.08-1.1"/><path class="cls-84" d="M366.83,556.88,341,530.15c-.37.39-.72.79-1.06,1.2l25.81,26.72c.34-.4.69-.8,1.06-1.19"/><path class="cls-85" d="M365.77,558.07,340,531.35c-.37.43-.72.87-1.06,1.32l25.82,26.73c.33-.45.68-.89,1-1.33"/><path class="cls-86" d="M364.72,559.4,338.9,532.67c-.37.5-.72,1-1.06,1.51l25.81,26.73c.34-.51.69-1,1.07-1.51"/><path class="cls-87" d="M363.65,560.91l-25.81-26.73q-.6.9-1.11,1.83l25.81,26.73q.51-.93,1.11-1.83"/><path class="cls-88" d="M362.54,562.74,336.73,536a26.87,26.87,0,0,0-1.3,2.64l25.82,26.73a24.7,24.7,0,0,1,1.29-2.64"/><path class="cls-89" d="M361.25,565.38l-25.82-26.73a23,23,0,0,0-1.83,7.68l25.81,26.73a22.82,22.82,0,0,1,1.84-7.68"/><path class="cls-88" d="M359.41,573.06,333.6,546.33a18.3,18.3,0,0,0,0,2.57l25.81,26.73a18.3,18.3,0,0,1,0-2.57"/><path class="cls-87" d="M359.45,575.63,333.64,548.9a17.33,17.33,0,0,0,.25,1.78l25.82,26.73a15.27,15.27,0,0,1-.26-1.78"/><path class="cls-86" d="M359.71,577.41l-25.82-26.73a13.81,13.81,0,0,0,.37,1.44l25.81,26.72a12,12,0,0,1-.36-1.43"/><path class="cls-85" d="M360.07,578.84l-25.81-26.72c.12.41.27.83.43,1.23l25.81,26.73a13,13,0,0,1-.43-1.24"/><path class="cls-84" d="M360.5,580.08l-25.81-26.73c.16.38.32.74.51,1.1L361,581.18c-.18-.36-.35-.73-.51-1.1"/><path class="cls-83" d="M361,581.18,335.2,554.45c.17.34.37.68.57,1l25.81,26.73c-.2-.33-.39-.67-.57-1"/><path class="cls-82" d="M361.58,582.19l-25.81-26.73c.2.32.41.63.64.93l25.81,26.73c-.22-.31-.44-.62-.64-.93"/><path class="cls-81" d="M362.22,583.12l-25.81-26.73q.34.45.72.87L362.94,584q-.37-.43-.72-.87"/><path class="cls-80" d="M362.94,584l-25.81-26.73.1.1.21.23,25.81,26.72-.21-.22-.1-.1"/></g></g></g><g class="cls-2"><g class="cls-90"><g class="cls-2"><path class="cls-4" d="M361.34,534.5l25.81,26.73c-1.75-1.81-4.52-2.24-7.31-1.4L354,533.1c2.79-.84,5.56-.41,7.31,1.4"/><path class="cls-14" d="M354,533.1l25.81,26.73a7.94,7.94,0,0,0-1,.35L353,533.45a9.12,9.12,0,0,1,1-.35"/><path class="cls-15" d="M353,533.45l25.81,26.73c-.25.1-.5.21-.75.34l-25.81-26.73c.25-.13.5-.24.75-.34"/><path class="cls-6" d="M352.28,533.79l25.81,26.73c-.22.1-.44.22-.66.34l-25.81-26.72c.22-.13.44-.24.66-.35"/><path class="cls-7" d="M351.62,534.14l25.81,26.72-.59.36L351,534.5c.19-.13.39-.25.59-.36"/><path class="cls-8" d="M351,534.5l25.81,26.72-.54.37-25.81-26.72a6.45,6.45,0,0,1,.54-.37"/><path class="cls-80" d="M350.49,534.87l25.81,26.72-.52.4L350,535.26a6.41,6.41,0,0,1,.52-.39"/><path class="cls-81" d="M350,535.26,375.78,562c-.17.13-.33.27-.49.41l-25.82-26.73.5-.41"/><path class="cls-82" d="M349.47,535.67l25.82,26.73-.34.3-.15.15L349,536.12l.15-.14.33-.31"/><path class="cls-83" d="M349,536.12l25.81,26.73c-.16.15-.31.31-.46.47l-25.81-26.73c.15-.16.3-.32.46-.47"/><path class="cls-84" d="M348.53,536.59l25.81,26.73-.46.51L348.07,537.1l.46-.51"/><path class="cls-85" d="M348.07,537.1l25.81,26.73-.45.57-25.81-26.73c.14-.19.3-.38.45-.57"/><path class="cls-86" d="M347.62,537.67l25.81,26.73c-.16.21-.31.43-.45.65l-25.82-26.73c.15-.22.3-.44.46-.65"/><path class="cls-87" d="M347.16,538.32,373,565.05q-.25.39-.48.78L346.69,539.1c.15-.26.3-.52.47-.78"/><path class="cls-88" d="M346.69,539.1l25.81,26.73c-.21.38-.39.75-.56,1.14l-25.81-26.73a12,12,0,0,1,.56-1.14"/><path class="cls-89" d="M346.13,540.24,371.94,567a9.73,9.73,0,0,0-.78,3.29l-25.82-26.73a10.06,10.06,0,0,1,.79-3.29"/><path class="cls-88" d="M345.34,543.53l25.82,26.73a8.06,8.06,0,0,0,0,1.1l-25.81-26.73a10,10,0,0,1,0-1.1"/><path class="cls-87" d="M345.36,544.63l25.81,26.73c0,.26.06.51.11.76l-25.81-26.73c-.05-.25-.08-.5-.11-.76"/><path class="cls-86" d="M345.47,545.39l25.81,26.73c.05.21.1.42.16.62L345.63,546a6.25,6.25,0,0,1-.16-.62"/><path class="cls-85" d="M345.63,546l25.81,26.73a5.62,5.62,0,0,0,.19.53l-25.82-26.73a4.72,4.72,0,0,1-.18-.53"/><path class="cls-84" d="M345.81,546.54l25.82,26.73a4,4,0,0,0,.21.47L346,547c-.08-.15-.15-.31-.22-.47"/><path class="cls-83" d="M346,547l25.81,26.73c.08.15.16.29.25.43l-25.81-26.73c-.09-.14-.17-.28-.25-.43"/><path class="cls-82" d="M346.28,547.44l25.81,26.73c.08.14.18.27.27.4l-25.81-26.73a3.51,3.51,0,0,1-.27-.4"/><path class="cls-81" d="M346.55,547.84l25.81,26.73c.1.13.2.25.31.37l-25.81-26.73c-.11-.12-.21-.24-.31-.37"/><path class="cls-80" d="M346.86,548.21l25.81,26.73,0,0,.09.09L347,548.36l-.09-.1,0,0"/></g></g></g><g class="cls-2"><g class="cls-91"><g class="cls-2"><path class="cls-80" d="M361.43,534.59l25.81,26.73-.09-.09L361.34,534.5l.09.09"/></g></g></g><g class="cls-2"><g class="cls-92"><g class="cls-2"><path class="cls-80" d="M396.91,552.22,371.1,525.49l-.21-.22L396.7,552l.21.22"/></g></g></g><g class="cls-2"><g class="cls-93"><g class="cls-2"><path class="cls-4" d="M347,548.36l25.81,26.72c1.75,1.81,4.52,2.24,7.31,1.41L354.3,549.76c-2.8.83-5.56.4-7.31-1.4"/><path class="cls-14" d="M354.3,549.76l25.81,26.73a10,10,0,0,0,1-.36L355.3,549.41c-.33.13-.67.25-1,.35"/><path class="cls-15" d="M355.3,549.41l25.81,26.72c.25-.1.5-.21.75-.34l-25.81-26.72-.75.34"/><path class="cls-6" d="M356.05,549.07l25.81,26.72c.22-.1.44-.22.66-.34l-25.81-26.73-.66.35"/><path class="cls-7" d="M356.71,548.72l25.81,26.73.59-.36L357.3,548.36l-.59.36"/><path class="cls-8" d="M357.3,548.36l25.81,26.73.54-.37L357.84,548l-.54.37"/><path class="cls-80" d="M357.84,548l25.81,26.73.52-.39L358.36,547.6l-.52.39"/><path class="cls-81" d="M358.36,547.6l25.81,26.73.49-.42-25.81-26.73-.49.42"/><path class="cls-82" d="M358.85,547.18l25.81,26.73.34-.3.15-.15-25.81-26.73-.15.15-.34.3"/><path class="cls-83" d="M359.34,546.73l25.81,26.73c.16-.15.31-.31.46-.47L359.8,546.26c-.15.16-.3.32-.46.47"/><path class="cls-84" d="M359.8,546.26,385.61,573l.46-.51-25.82-26.73q-.21.25-.45.51"/><path class="cls-85" d="M360.25,545.75l25.82,26.73.45-.57-25.81-26.73-.46.57"/><path class="cls-86" d="M360.71,545.18l25.81,26.73c.16-.21.31-.43.45-.65l-25.81-26.73c-.14.22-.29.44-.45.65"/><path class="cls-87" d="M361.16,544.53,387,571.26q.25-.39.48-.78l-25.81-26.73c-.15.26-.31.53-.48.78"/><path class="cls-88" d="M361.64,543.75l25.81,26.73c.21-.38.39-.75.56-1.14l-25.82-26.72a10.68,10.68,0,0,1-.55,1.13"/><path class="cls-89" d="M362.19,542.62,388,569.34a9.73,9.73,0,0,0,.78-3.29L363,539.32a9.57,9.57,0,0,1-.79,3.3"/><path class="cls-88" d="M363,539.32l25.81,26.73a8.06,8.06,0,0,0,0-1.1L363,538.22a6.72,6.72,0,0,1,0,1.1"/><path class="cls-87" d="M363,538.22,388.78,565c0-.26-.06-.51-.11-.76l-25.82-26.73a6.32,6.32,0,0,1,.11.76"/><path class="cls-86" d="M362.85,537.46l25.82,26.73c-.05-.21-.1-.42-.16-.62L362.7,536.84c.06.21.11.41.15.62"/><path class="cls-85" d="M362.7,536.84l25.81,26.73a5.62,5.62,0,0,0-.19-.53l-25.81-26.73a5.62,5.62,0,0,1,.19.53"/><path class="cls-84" d="M362.51,536.31,388.32,563a4,4,0,0,0-.21-.47L362.3,535.84c.07.16.15.31.21.47"/><path class="cls-83" d="M362.3,535.84l25.81,26.73c-.08-.15-.16-.29-.25-.43l-25.81-26.73c.09.14.17.28.25.43"/><path class="cls-82" d="M362.05,535.41l25.81,26.73c-.08-.14-.18-.27-.27-.4L361.77,535c.1.13.19.26.28.4"/><path class="cls-81" d="M361.77,535l25.82,26.73c-.1-.13-.2-.25-.31-.37l-25.81-26.73a3.47,3.47,0,0,1,.3.37"/><path class="cls-80" d="M361.47,534.64l25.81,26.73,0,0-25.81-26.73,0,0"/></g></g></g><g class="cls-2"><g class="cls-94"><g class="cls-2"><path class="cls-4" d="M363.25,584.31l-25.81-26.72c4.07,4.21,10.52,5.22,17.05,3.26l25.81,26.73c-6.53,2-13,.95-17.05-3.27"/><path class="cls-14" d="M380.3,587.58l-25.81-26.73q1.15-.35,2.31-.81l25.82,26.72c-.78.32-1.55.59-2.32.82"/><path class="cls-15" d="M382.62,586.76,356.8,560c.59-.24,1.18-.51,1.77-.8L384.38,586c-.59.29-1.17.55-1.76.79"/><path class="cls-6" d="M384.38,586l-25.81-26.73q.76-.37,1.53-.81l25.81,26.73q-.77.44-1.53.81"/><path class="cls-7" d="M385.91,585.16,360.1,558.43q.69-.39,1.38-.84l25.81,26.73-1.38.84"/><path class="cls-8" d="M387.29,584.32l-25.81-26.73c.42-.27.84-.56,1.26-.86l25.81,26.73c-.42.3-.84.59-1.26.86"/><path class="cls-80" d="M388.55,583.46l-25.81-26.73c.41-.29.81-.6,1.2-.91l25.81,26.72c-.39.32-.79.62-1.2.92"/><path class="cls-81" d="M389.75,582.54l-25.81-26.72c.39-.32.78-.64,1.16-1l25.81,26.72c-.38.34-.77.66-1.16,1"/><path class="cls-82" d="M390.91,581.57,365.1,554.85l.78-.71.34-.33L392,580.53l-.35.34-.78.7"/><path class="cls-83" d="M392,580.53l-25.82-26.72c.38-.37.74-.73,1.09-1.11l25.81,26.73c-.35.37-.71.74-1.08,1.1"/><path class="cls-84" d="M393.12,579.43,367.31,552.7c.36-.39.72-.79,1.06-1.19l25.81,26.73c-.34.4-.69.8-1.06,1.19"/><path class="cls-85" d="M394.18,578.24l-25.81-26.73c.36-.44.72-.88,1.05-1.33l25.81,26.73c-.33.45-.68.89-1.05,1.33"/><path class="cls-86" d="M395.23,576.91l-25.81-26.73c.38-.49.73-1,1.07-1.5L396.3,575.4c-.34.51-.69,1-1.07,1.51"/><path class="cls-87" d="M396.3,575.4l-25.81-26.72q.58-.91,1.11-1.83l25.81,26.73c-.34.61-.71,1.22-1.11,1.82"/><path class="cls-88" d="M397.41,573.58,371.6,546.85a28.05,28.05,0,0,0,1.29-2.65l25.81,26.73a25.81,25.81,0,0,1-1.29,2.65"/><path class="cls-89" d="M398.7,570.93,372.89,544.2a22.76,22.76,0,0,0,1.84-7.68l25.81,26.73a22.82,22.82,0,0,1-1.84,7.68"/><path class="cls-88" d="M400.54,563.25l-25.81-26.73a18.14,18.14,0,0,0,0-2.56l25.81,26.72a18.3,18.3,0,0,1,0,2.57"/><path class="cls-87" d="M400.5,560.68,374.69,534a16.94,16.94,0,0,0-.26-1.78l25.81,26.72a15.27,15.27,0,0,1,.26,1.78"/><path class="cls-86" d="M400.24,558.9l-25.81-26.72q-.15-.73-.36-1.44l25.81,26.73a12,12,0,0,1,.36,1.43"/><path class="cls-85" d="M399.88,557.47l-25.81-26.73c-.13-.42-.27-.83-.44-1.24l25.82,26.73a13,13,0,0,1,.43,1.24"/><path class="cls-84" d="M399.45,556.23,373.63,529.5c-.15-.37-.32-.74-.5-1.1l25.81,26.73c.18.36.35.73.51,1.1"/><path class="cls-83" d="M398.94,555.13,373.13,528.4c-.18-.34-.37-.68-.57-1l25.81,26.72c.2.33.39.67.57,1"/><path class="cls-82" d="M398.37,554.12,372.56,527.4c-.2-.32-.42-.63-.65-.93l25.82,26.72c.22.31.44.62.64.93"/><path class="cls-81" d="M397.73,553.19l-25.82-26.72c-.22-.3-.46-.59-.71-.87L397,552.32q.38.43.72.87"/><path class="cls-80" d="M397,552.32,371.2,525.6l-.1-.11,25.81,26.73.1.1"/></g></g></g><path class="cls-78" d="M371.1,525.49c6.47,7,4.13,19.85-5.22,28.65s-22.18,10.24-28.65,3.22-4.13-19.84,5.22-28.65S364.63,518.47,371.1,525.49Zm-9.67,9.1c-2.78-3-8.28-2.39-12.29,1.39s-5,9.27-2.24,12.28,8.27,2.39,12.29-1.38,5-9.28,2.24-12.29"/></g><g class="cls-2"><ellipse class="cls-78" cx="353.99" cy="541.25" rx="33.23" ry="24.69" transform="translate(-276.63 397.81) rotate(-44)"/><g class="cls-2"><g class="cls-95"><g class="cls-2"><path class="cls-4" d="M377.89,518.16,167.11,299.9c-5.82-6-15-7.46-24.35-4.67L353.53,513.49c9.32-2.79,18.54-1.36,24.36,4.67"/><path class="cls-14" d="M353.53,513.49,142.76,295.23c-1.11.33-2.21.72-3.31,1.17L350.22,514.66c1.1-.45,2.21-.84,3.31-1.17"/><path class="cls-15" d="M350.22,514.66,139.45,296.4c-.85.34-1.69.72-2.52,1.13L347.7,515.79c.84-.41,1.68-.79,2.52-1.13"/><path class="cls-6" d="M347.7,515.79,136.93,297.53c-.74.36-1.47.75-2.19,1.16L345.51,517c.73-.41,1.46-.8,2.19-1.16"/><path class="cls-7" d="M345.51,517,134.74,298.69c-.66.38-1.32.78-2,1.2L343.54,518.15c.66-.42,1.31-.82,2-1.2"/><path class="cls-8" d="M343.54,518.15,132.77,299.89c-.61.39-1.21.8-1.81,1.23L341.74,519.39c.59-.43,1.2-.84,1.8-1.24"/><path class="cls-80" d="M341.74,519.39,131,301.12c-.58.42-1.15.86-1.71,1.31L340,520.69c.57-.45,1.14-.89,1.72-1.3"/><path class="cls-81" d="M340,520.69,129.25,302.43c-.56.44-1.11.9-1.66,1.38L338.37,522.08c.54-.48,1.09-1,1.65-1.39"/><path class="cls-82" d="M338.37,522.08,127.59,303.81l-1.11,1-.49.48L336.76,523.56l.5-.47c.36-.35.73-.69,1.11-1"/><path class="cls-83" d="M336.76,523.56,126,305.3c-.54.52-1,1-1.55,1.58L335.21,525.14c.5-.53,1-1.06,1.55-1.58"/><path class="cls-84" d="M335.21,525.14,124.44,306.88c-.53.56-1,1.13-1.52,1.7L333.7,526.85c.48-.58,1-1.15,1.51-1.71"/><path class="cls-85" d="M333.7,526.85,122.92,308.58q-.78.93-1.5,1.89L332.19,528.74c.48-.64,1-1.27,1.51-1.89"/><path class="cls-86" d="M332.19,528.74,121.42,310.47c-.54.71-1,1.43-1.52,2.16L330.67,530.89c.48-.72,1-1.44,1.52-2.15"/><path class="cls-87" d="M330.67,530.89,119.9,312.63q-.86,1.29-1.59,2.61L329.08,533.51c.49-.88,1-1.76,1.59-2.62"/><path class="cls-88" d="M329.08,533.51,118.31,315.24a37.8,37.8,0,0,0-1.85,3.79L327.23,537.29a39.94,39.94,0,0,1,1.85-3.78"/><path class="cls-89" d="M327.23,537.29,116.46,319a32.76,32.76,0,0,0-2.63,11L324.61,548.26a32.5,32.5,0,0,1,2.62-11"/><path class="cls-88" d="M324.61,548.26,113.83,330a28,28,0,0,0,.06,3.67L324.67,551.92a24.74,24.74,0,0,1-.06-3.66"/><path class="cls-87" d="M324.67,551.92,113.89,333.66a23.53,23.53,0,0,0,.37,2.54L325,554.47a23.36,23.36,0,0,1-.36-2.55"/><path class="cls-86" d="M325,554.47,114.26,336.2c.14.7.31,1.39.51,2.06L325.55,556.52a20.5,20.5,0,0,1-.52-2"/><path class="cls-85" d="M325.55,556.52,114.77,338.26c.19.6.39,1.19.63,1.76L326.17,558.29c-.23-.58-.44-1.17-.62-1.77"/><path class="cls-84" d="M326.17,558.29,115.4,340c.22.54.46,1.06.72,1.58L326.89,559.86c-.26-.51-.5-1-.72-1.57"/><path class="cls-83" d="M326.89,559.86,116.12,341.6c.25.49.53,1,.82,1.43L327.71,561.3c-.29-.47-.56-.95-.82-1.44"/><path class="cls-82" d="M327.71,561.3,116.94,343a15,15,0,0,0,.92,1.33L328.63,562.62c-.33-.43-.63-.87-.92-1.32"/><path class="cls-81" d="M328.63,562.62,117.86,344.36c.32.43.66.84,1,1.24L329.66,563.87c-.36-.4-.71-.82-1-1.25"/><path class="cls-80" d="M329.66,563.87,118.88,345.6a1,1,0,0,0,.14.15l.3.32L330.1,564.34l-.31-.32-.13-.15"/></g></g></g><g class="cls-2"><g class="cls-96"><g class="cls-2"><path class="cls-80" d="M378.19,518.48,167.42,300.22c-.1-.11-.2-.22-.31-.32L377.89,518.16l.3.32"/></g></g></g><g class="cls-2"><g class="cls-97"><g class="cls-2"><path class="cls-4" d="M330.1,564.34,119.32,346.07c5.82,6,15,7.46,24.36,4.67L354.45,569c-9.32,2.79-18.53,1.35-24.35-4.67"/><path class="cls-14" d="M354.45,569,143.68,350.74c1.1-.33,2.21-.72,3.31-1.17L357.76,567.84c-1.1.45-2.2.84-3.31,1.17"/><path class="cls-15" d="M357.76,567.84,147,349.57c.84-.34,1.68-.72,2.52-1.13L360.28,566.7c-.83.42-1.67.79-2.52,1.14"/><path class="cls-6" d="M360.28,566.7,149.51,348.44c.73-.36,1.46-.75,2.19-1.16L362.47,565.54c-.72.42-1.45.8-2.19,1.16"/><path class="cls-7" d="M362.47,565.54,151.7,347.28c.66-.38,1.31-.78,2-1.2L364.44,564.35c-.65.42-1.31.82-2,1.19"/><path class="cls-8" d="M364.44,564.35,153.67,346.08c.6-.39,1.21-.8,1.8-1.23L366.25,563.11c-.6.43-1.2.84-1.81,1.24"/><path class="cls-80" d="M366.25,563.11,155.47,344.85c.58-.42,1.15-.85,1.72-1.3L368,561.81c-.56.45-1.13.88-1.71,1.3"/><path class="cls-81" d="M368,561.81,157.19,343.55c.56-.45,1.11-.91,1.65-1.39L369.62,560.42c-.55.48-1.1.94-1.66,1.39"/><path class="cls-82" d="M369.62,560.42,158.84,342.16c.38-.33.75-.67,1.11-1l.5-.48L371.22,558.94l-.49.47c-.37.35-.74.68-1.11,1"/><path class="cls-83" d="M371.22,558.94,160.45,340.67c.53-.51,1.05-1,1.55-1.57L372.77,557.36c-.5.53-1,1.06-1.55,1.58"/><path class="cls-84" d="M372.77,557.36,162,339.1c.52-.56,1-1.13,1.51-1.71L374.29,555.65c-.49.58-1,1.15-1.52,1.71"/><path class="cls-85" d="M374.29,555.65,163.51,337.39c.53-.62,1-1.25,1.51-1.89L375.79,553.76q-.72,1-1.5,1.89"/><path class="cls-86" d="M375.79,553.76,165,335.5c.53-.71,1-1.43,1.52-2.16L377.31,551.61c-.48.72-1,1.44-1.52,2.15"/><path class="cls-87" d="M377.31,551.61,166.54,333.34q.86-1.29,1.59-2.61L378.9,549c-.49.88-1,1.76-1.59,2.62"/><path class="cls-88" d="M378.9,549,168.13,330.73A41.16,41.16,0,0,0,170,327L380.75,545.21A37.65,37.65,0,0,1,378.9,549"/><path class="cls-89" d="M380.75,545.21,170,327a32.55,32.55,0,0,0,2.62-11L383.38,534.24a32.81,32.81,0,0,1-2.63,11"/><path class="cls-88" d="M383.38,534.24,172.6,316a24.89,24.89,0,0,0-.06-3.67L383.32,530.57a28,28,0,0,1,.06,3.67"/><path class="cls-87" d="M383.32,530.57,172.54,312.31a23.52,23.52,0,0,0-.36-2.54L383,528a23.53,23.53,0,0,1,.37,2.54"/><path class="cls-86" d="M383,528,172.18,309.77a20.69,20.69,0,0,0-.52-2.06L382.44,526c.2.67.37,1.35.51,2"/><path class="cls-85" d="M382.44,526,171.66,307.71c-.18-.6-.39-1.18-.62-1.76L381.81,524.21c.24.58.44,1.17.63,1.77"/><path class="cls-84" d="M381.81,524.21,171,306c-.22-.54-.46-1.06-.72-1.57L381.09,522.64c.26.51.5,1,.72,1.57"/><path class="cls-83" d="M381.09,522.64,170.32,304.38c-.26-.49-.53-1-.82-1.44L380.27,521.2c.29.47.57.95.82,1.44"/><path class="cls-82" d="M380.27,521.2,169.5,302.94c-.29-.45-.59-.9-.92-1.33L379.35,519.87c.33.43.64.88.92,1.33"/><path class="cls-81" d="M379.35,519.87,168.58,301.61c-.32-.43-.67-.84-1-1.24L378.33,518.63c.36.4.7.82,1,1.24"/><path class="cls-80" d="M378.33,518.63,167.55,300.37l-.13-.15L378.19,518.48l.14.15"/></g></g></g><ellipse class="cls-78" cx="143.22" cy="322.99" rx="33.23" ry="24.69" transform="translate(-184.17 190.14) rotate(-44)"/></g><g class="cls-2"><ellipse class="cls-98" cx="143.16" cy="322.93" rx="33.23" ry="24.69" transform="translate(-184.14 190.08) rotate(-44)"/><g class="cls-2"><g class="cls-99"><g class="cls-2"><path class="cls-28" d="M167.06,299.84,59.58,188.54c-5.82-6-15-7.46-24.36-4.67L142.7,295.17c9.32-2.79,18.54-1.36,24.36,4.67"/><path class="cls-22" d="M142.7,295.17,35.22,183.87c-1.1.33-2.21.72-3.31,1.17l107.48,111.3c1.1-.45,2.2-.84,3.31-1.17"/><path class="cls-23" d="M139.39,296.34,31.91,185c-.85.34-1.69.72-2.52,1.13l107.48,111.3c.83-.41,1.67-.79,2.52-1.13"/><path class="cls-34" d="M136.87,297.47,29.39,186.17c-.73.36-1.46.75-2.19,1.16l107.48,111.3c.72-.41,1.45-.8,2.19-1.16"/><path class="cls-38" d="M134.68,298.63,27.2,187.33c-.66.38-1.32.78-2,1.2l107.48,111.3c.65-.42,1.31-.82,2-1.2"/><path class="cls-25" d="M132.71,299.83,25.23,188.53c-.61.39-1.21.81-1.8,1.24L130.9,301.06c.6-.43,1.2-.84,1.81-1.23"/><path class="cls-100" d="M130.9,301.06,23.43,189.77c-.58.41-1.15.85-1.72,1.3l107.48,111.3c.56-.46,1.14-.89,1.71-1.31"/><path class="cls-101" d="M129.19,302.37,21.71,191.07c-.56.44-1.11.91-1.65,1.38l107.48,111.3q.81-.72,1.65-1.38"/><path class="cls-102" d="M127.54,303.75,20.06,192.45q-.57.5-1.11,1l-.5.47,107.48,111.3.5-.48c.36-.34.73-.68,1.11-1"/><path class="cls-103" d="M125.93,305.24,18.45,193.94c-.53.52-1.05,1-1.55,1.58l107.48,111.3c.5-.54,1-1.06,1.55-1.58"/><path class="cls-104" d="M124.38,306.82,16.9,195.52c-.52.56-1,1.13-1.51,1.7l107.47,111.3c.49-.58,1-1.14,1.52-1.7"/><path class="cls-105" d="M122.86,308.52,15.39,197.22c-.53.63-1,1.26-1.51,1.89l107.48,111.3q.72-1,1.5-1.89"/><path class="cls-106" d="M121.36,310.41,13.88,199.11c-.54.71-1,1.43-1.52,2.16l107.48,111.3c.48-.73,1-1.45,1.52-2.16"/><path class="cls-107" d="M119.84,312.57,12.36,201.27q-.86,1.29-1.59,2.61l107.48,111.3q.73-1.32,1.59-2.61"/><path class="cls-108" d="M118.25,315.18,10.77,203.88a41.32,41.32,0,0,0-1.85,3.79L116.4,319a38.74,38.74,0,0,1,1.85-3.78"/><path class="cls-109" d="M116.4,319,8.92,207.67a32.76,32.76,0,0,0-2.63,11L113.77,329.93a32.87,32.87,0,0,1,2.63-11"/><path class="cls-108" d="M113.77,329.93,6.29,218.64a26.19,26.19,0,0,0,.07,3.66L113.83,333.6a28,28,0,0,1-.06-3.67"/><path class="cls-107" d="M113.83,333.6,6.36,222.3a21.44,21.44,0,0,0,.36,2.55L114.2,336.14a23.53,23.53,0,0,1-.37-2.54"/><path class="cls-106" d="M114.2,336.14,6.72,224.85a20.5,20.5,0,0,0,.52,2.05L114.71,338.2c-.2-.67-.37-1.36-.51-2.06"/><path class="cls-105" d="M114.71,338.2,7.24,226.9c.18.6.39,1.19.62,1.76L115.34,340c-.23-.57-.44-1.16-.63-1.76"/><path class="cls-104" d="M115.34,340,7.86,228.66c.22.54.46,1.07.72,1.58l107.48,111.3c-.26-.52-.5-1-.72-1.58"/><path class="cls-103" d="M116.06,341.54,8.58,230.24c.26.49.53,1,.82,1.43L116.88,343c-.29-.47-.57-.94-.82-1.43"/><path class="cls-102" d="M116.88,343,9.4,231.67c.29.46.59.9.92,1.33L117.8,344.3c-.33-.43-.63-.87-.92-1.33"/><path class="cls-101" d="M117.8,344.3,10.32,233c.32.43.66.84,1,1.25L118.82,345.54c-.36-.4-.7-.81-1-1.24"/><path class="cls-100" d="M118.82,345.54,11.35,234.25l.13.15.3.32L119.26,346l-.3-.32-.14-.15"/></g></g></g><g class="cls-2"><g class="cls-110"><g class="cls-2"><path class="cls-100" d="M167.36,300.16,59.88,188.86l-.3-.32,107.48,111.3.3.32"/></g></g></g><g class="cls-2"><g class="cls-111"><g class="cls-2"><path class="cls-28" d="M119.26,346,11.78,234.72c5.82,6,15,7.46,24.36,4.67L143.62,350.68c-9.32,2.79-18.54,1.36-24.36-4.67"/><path class="cls-22" d="M143.62,350.68,36.14,239.39c1.11-.34,2.21-.73,3.31-1.17L146.93,349.51c-1.1.45-2.21.84-3.31,1.17"/><path class="cls-23" d="M146.93,349.51,39.45,238.22c.85-.35,1.69-.72,2.52-1.14l107.48,111.3c-.83.41-1.68.79-2.52,1.13"/><path class="cls-34" d="M149.45,348.38,42,237.08c.74-.36,1.47-.74,2.19-1.16l107.48,111.3c-.73.41-1.46.8-2.19,1.16"/><path class="cls-38" d="M151.64,347.22,44.16,235.92c.66-.38,1.32-.77,2-1.2L153.61,346c-.65.42-1.31.82-2,1.2"/><path class="cls-25" d="M153.61,346,46.13,234.72c.61-.39,1.21-.8,1.81-1.23l107.47,111.3q-.89.65-1.8,1.23"/><path class="cls-100" d="M155.41,344.79,47.94,233.49c.57-.42,1.15-.85,1.71-1.3l107.48,111.3c-.57.45-1.14.88-1.72,1.3"/><path class="cls-101" d="M157.13,343.49,49.65,232.19c.56-.45,1.11-.91,1.65-1.39L158.78,342.1c-.54.48-1.09.94-1.65,1.39"/><path class="cls-102" d="M158.78,342.1,51.3,230.8c.38-.33.75-.66,1.11-1l.5-.48,107.48,111.3-.5.48c-.36.34-.73.68-1.11,1"/><path class="cls-103" d="M160.39,340.61,52.91,229.31c.54-.51,1.05-1,1.55-1.57L161.94,339c-.5.54-1,1.07-1.55,1.58"/><path class="cls-104" d="M161.94,339,54.46,227.74c.52-.56,1-1.13,1.52-1.71l107.47,111.3c-.48.58-1,1.15-1.51,1.7"/><path class="cls-105" d="M163.45,337.33,56,226q.78-.93,1.5-1.89L165,335.44c-.48.64-1,1.27-1.51,1.89"/><path class="cls-106" d="M165,335.44,57.48,224.14c.54-.71,1-1.43,1.52-2.16l107.48,111.3c-.48.73-1,1.45-1.52,2.16"/><path class="cls-107" d="M166.48,333.28,59,222q.86-1.29,1.59-2.61l107.48,111.3q-.73,1.32-1.59,2.61"/><path class="cls-108" d="M168.07,330.67,60.59,219.37a38.74,38.74,0,0,0,1.85-3.78l107.48,111.3a41.16,41.16,0,0,1-1.85,3.78"/><path class="cls-109" d="M169.92,326.89,62.44,215.59a32.81,32.81,0,0,0,2.63-11l107.48,111.3a32.87,32.87,0,0,1-2.63,11"/><path class="cls-108" d="M172.55,315.92,65.07,204.62A28,28,0,0,0,65,201l107.47,111.3a26.31,26.31,0,0,1,.07,3.67"/><path class="cls-107" d="M172.48,312.25,65,201a23.53,23.53,0,0,0-.37-2.54l107.48,111.3a21.27,21.27,0,0,1,.36,2.54"/><path class="cls-106" d="M172.12,309.71,64.64,198.41a19.83,19.83,0,0,0-.52-2L171.6,307.65a20.69,20.69,0,0,1,.52,2.06"/><path class="cls-105" d="M171.6,307.65,64.12,196.36c-.18-.6-.39-1.19-.62-1.77L171,305.89c.23.58.44,1.16.62,1.76"/><path class="cls-104" d="M171,305.89,63.5,194.59c-.22-.53-.46-1.06-.72-1.57l107.48,111.3c.26.51.5,1,.72,1.57"/><path class="cls-103" d="M170.26,304.32,62.78,193c-.25-.49-.53-1-.82-1.44l107.48,111.3c.29.47.56.95.82,1.44"/><path class="cls-102" d="M169.44,302.88,62,191.58c-.29-.45-.59-.9-.92-1.33l107.48,111.3c.33.43.63.87.92,1.33"/><path class="cls-101" d="M168.52,301.55,61,190.25c-.32-.42-.66-.84-1-1.24l107.47,111.3a15,15,0,0,1,1,1.24"/><path class="cls-100" d="M167.49,300.31,60,189l-.14-.15,107.48,111.3.13.15"/></g></g></g><ellipse class="cls-98" cx="35.68" cy="211.63" rx="33.23" ry="24.69" transform="translate(-137 84.18) rotate(-44)"/></g></g></svg>